<?xml version="1.0" encoding="UTF-8" standalone="no"?>
<!-- Created with Inkscape (http://www.inkscape.org/) -->

<svg
   xmlns:dc="http://purl.org/dc/elements/1.1/"
   xmlns:cc="http://creativecommons.org/ns#"
   xmlns:rdf="http://www.w3.org/1999/02/22-rdf-syntax-ns#"
   xmlns:svg="http://www.w3.org/2000/svg"
   xmlns="http://www.w3.org/2000/svg"
   xmlns:sodipodi="http://sodipodi.sourceforge.net/DTD/sodipodi-0.dtd"
   xmlns:inkscape="http://www.inkscape.org/namespaces/inkscape"
   version="1.1"
   id="svg2"
   width="1417"
   height="1417"
   viewBox="0 0 1417 1417"
   sodipodi:docname="basmalah.svg"
   inkscape:export-filename="E:\GitHub\ifreet-master\basmalah_red.png"
   inkscape:export-xdpi="300"
   inkscape:export-ydpi="300"
   inkscape:version="0.92.4 (5da689c313, 2019-01-14)">
  <metadata
     id="metadata8">
    <rdf:RDF>
      <cc:Work
         rdf:about="">
        <dc:format>image/svg+xml</dc:format>
        <dc:type
           rdf:resource="http://purl.org/dc/dcmitype/StillImage" />
      </cc:Work>
    </rdf:RDF>
  </metadata>
  <defs
     id="defs6" />
  <sodipodi:namedview
     pagecolor="#ffffff"
     bordercolor="#666666"
     borderopacity="1"
     objecttolerance="10"
     gridtolerance="10"
     guidetolerance="10"
     inkscape:pageopacity="0"
     inkscape:pageshadow="2"
     inkscape:window-width="1920"
     inkscape:window-height="1017"
     id="namedview4"
     showgrid="false"
     inkscape:zoom="0.47107184"
     inkscape:cx="285.44248"
     inkscape:cy="535.51965"
     inkscape:window-x="-8"
     inkscape:window-y="-8"
     inkscape:window-maximized="1"
     inkscape:current-layer="svg2" />
  <path
     style="fill:#ff0000;stroke-width:0.68249142"
     d="m 640.33698,1071.5863 c -4.50069,-1.0006 -8.64771,-3.0736 -11.9507,-5.9737 -3.01831,-2.6501 -3.87293,-4.1832 -4.51051,-8.0921 -0.77286,-4.7378 -2.19735,-9.1385 -3.21488,-9.9317 -0.75681,-0.59 -0.79005,-2.2524 -0.18639,-9.3162 0.40411,-4.7289 1.05268,-9.4342 1.44122,-10.4562 l 0.70651,-1.8582 -2.3924,2.1006 c -1.31584,1.1553 -3.70279,2.4601 -5.30432,2.8995 -1.60154,0.4395 -3.91143,1.2362 -5.13309,1.7705 -6.3484,2.7766 -19.95974,4.0615 -31.9034,3.0115 -32.81317,-2.8846 -68.69871,-14.4201 -87.88763,-28.2516 -13.29405,-9.58242 -28.01928,-24.1876 -42.10659,-41.76326 -15.26071,-19.0396 -25.47147,-36.66931 -32.52706,-56.16085 -1.31243,-3.62553 -2.6321,-6.90723 -2.9326,-7.29263 -0.30057,-0.3854 -0.74883,-2.02659 -0.99623,-3.64703 -0.24741,-1.62051 -1.67136,-5.37594 -3.16437,-8.3454 -1.49302,-2.96952 -2.71482,-5.94334 -2.71516,-6.60856 -2.7e-4,-0.66522 -0.89167,-3.09319 -1.98079,-5.39544 -1.7248,-3.64576 -1.85338,-4.31297 -0.99631,-5.16999 0.85701,-0.85702 0.80644,-1.39819 -0.39168,-4.1933 -2.13585,-4.98278 -4.75273,-14.04065 -6.1803,-21.39232 -0.71457,-3.67974 -1.75926,-7.6118 -2.32149,-8.73791 -1.30957,-2.62288 -3.96337,-15.87115 -6.18194,-30.86111 -1.59062,-10.74767 -1.7392,-13.66966 -1.7392,-34.21184 0,-18.05949 0.19363,-22.92382 0.98798,-24.82504 0.5434,-1.30049 0.84281,-2.95038 0.66536,-3.66642 -0.17745,-0.71605 0.7633,-8.97993 2.09061,-18.36419 2.91731,-20.62651 3.45429,-23.7405 4.39763,-25.50318 0.40199,-0.75102 0.73081,-2.44248 0.73081,-3.7588 0,-1.31633 0.30712,-2.58313 0.6825,-2.81512 0.37537,-0.23199 0.68249,-1.6573 0.68249,-3.16734 0,-2.15555 1.17805,-4.87457 5.48184,-12.65282 8.60178,-15.54593 9.36651,-16.57458 14.58149,-19.6128 4.16382,-2.42585 6.55383,-4.6132 6.55383,-5.99813 0,-0.28553 -1.5053,-1.28193 -3.34509,-2.21424 -1.83986,-0.93231 -4.0224,-2.54987 -4.85013,-3.59458 -1.2966,-1.63653 -1.44893,-2.44386 -1.10065,-5.8322 0.92873,-9.03389 7.49171,-15.80159 19.03926,-19.63308 5.44266,-1.80589 5.56524,-1.97619 2.18472,-3.03588 -0.57152,-0.17917 -1.24234,-0.87019 -1.49063,-1.5356 -0.24829,-0.66541 -0.96709,-1.58171 -1.5973,-2.0362 -1.5552,-1.12157 -2.09368,-5.88982 -1.13703,-10.0679 1.40163,-6.12143 8.21726,-11.56152 15.76876,-12.58628 4.84535,-0.65753 5.32323,-1.0371 4.18285,-3.32251 -2.85172,-5.71499 -3.25944,-7.45377 -2.38183,-10.15716 0.93099,-2.86757 4.71138,-8.93349 6.62392,-10.62852 2.53355,-2.24539 7.48769,-3.25689 15.95167,-3.25689 9.64716,0 14.13358,1.21808 25.86056,7.02126 3.94139,1.95043 7.3965,3.65111 7.67803,3.77929 0.28152,0.12819 0.51187,-1.63525 0.51187,-3.91876 0,-2.41893 0.2962,-4.15182 0.70972,-4.15182 1.03902,0 5.9503,2.59353 6.45377,3.40809 0.2371,0.38369 2.63811,2.34171 5.33559,4.35116 2.69747,2.00943 8.43634,6.74375 12.7531,10.52071 l 7.84865,6.86719 1.17907,-1.48309 c 1.59355,-2.00444 3.20587,-5.4276 3.42154,-7.26434 0.15172,-1.29253 -0.68236,-1.87918 -5.87728,-4.13361 -7.4369,-3.22738 -12.68444,-6.64572 -15.13595,-9.85979 -1.48265,-1.94387 -1.87405,-3.21916 -1.93643,-6.30934 l -0.0782,-3.87302 5.11869,-2.93338 c 12.05559,-6.90871 17.95901,-8.27288 56.98803,-13.16892 25.84486,-3.24214 33.58199,-3.7623 55.9643,-3.76243 23.86161,-1.5e-4 28.8698,0.62791 37.57252,4.71181 6.90354,3.23965 9.18558,5.54113 12.8363,12.94591 2.89062,5.86309 3.16676,6.8571 3.16676,11.40007 0,6.11494 -1.28049,9.03351 -6.48824,14.78826 -8.7148,9.63014 -19.07455,13.82434 -34.14641,13.82434 -5.01304,0 -7.82224,0.25762 -7.82224,0.71732 0,1.00825 -3.66259,2.41692 -8.87239,3.41241 -2.43991,0.46622 -4.52608,0.91814 -4.63589,1.00428 -0.10988,0.0861 1.8864,2.09195 4.43619,4.45737 8.99251,8.34242 21.71865,21.65212 23.40441,24.47765 0.93842,1.57292 3.52704,5.06974 5.75251,7.77074 4.49892,5.46025 8.87799,12.01652 11.49534,17.21055 2.60528,5.17014 7.95444,23.23565 10.37421,35.03642 l 2.14931,10.48153 11.69449,-12.18776 c 6.432,-6.70327 12.95539,-12.95557 14.49652,-13.89399 2.75474,-1.67749 2.79501,-1.75796 2.38852,-4.77744 -0.22741,-1.68917 -0.68031,-8.44583 -1.00647,-15.01481 -0.32616,-6.56898 -1.70411,-32.17562 -3.06207,-56.90365 -2.28484,-41.60736 -2.59428,-45.39259 -4.14975,-50.7602 -0.9245,-3.19008 -1.87583,-8.33668 -2.11415,-11.43687 l -0.43325,-5.63674 -8.33827,-0.27758 c -6.36662,-0.21197 -8.75923,-0.55346 -10.11875,-1.44423 -0.97924,-0.64165 -2.28123,-1.16663 -2.89322,-1.16663 -1.69279,0 -8.54473,-3.93123 -11.09902,-6.36793 -4.16832,-3.97642 -9.46363,-11.66908 -11.34574,-16.4822 -1.02462,-2.62026 -2.58138,-9.06981 -3.45948,-14.33232 -0.87816,-5.26252 -1.92606,-10.43279 -2.32866,-11.4895 -0.42874,-1.12534 -0.71846,-7.06287 -0.69928,-14.33232 0.03,-11.30633 0.20352,-13.07927 1.9509,-19.91844 1.49009,-5.83189 1.76847,-7.93783 1.24746,-9.43596 l -0.67075,-1.92856 -2.36367,2.26981 c -3.9143,3.75869 -4.97414,6.54768 -4.97414,13.08945 0,4.48627 -0.2257,5.84197 -1.02374,6.14819 -0.62789,0.24094 -1.02373,1.2763 -1.02373,2.67764 0,1.25663 -0.3005,3.95359 -0.66782,5.99322 -1.22821,6.82005 -2.6568,19.28186 -3.78674,33.0316 -0.96354,11.72535 -1.33918,14.00999 -2.69304,16.3798 -0.86533,1.51466 -1.93711,3.90188 -2.38169,5.30493 -0.45898,1.44829 -1.88654,3.43969 -3.30251,4.60682 -2.41622,1.99169 -2.71331,2.0558 -9.52608,2.0558 -5.35448,0 -7.11845,-0.22503 -7.39404,-0.94324 -0.19908,-0.51879 -1.62952,-1.14594 -3.1787,-1.39366 -11.06606,-1.76954 -27.80518,-19.66572 -35.3734,-37.8185 -3.54213,-8.49604 -4.71799,-13.44467 -6.10768,-25.70502 -0.72338,-6.3813 -1.32185,-11.96269 -1.32997,-12.4031 -0.008,-0.44042 -0.78269,-1.71324 -1.72111,-2.82849 -1.55199,-1.84447 -1.70623,-2.60078 -1.70623,-8.36803 0,-6.72165 1.21756,-10.65094 4.11215,-13.2705 1.32485,-1.19895 1.34737,-1.16272 1.32362,2.1279 -0.013,1.84119 -0.46314,4.11541 -0.99958,5.05384 -0.53643,0.93843 -0.98626,3.0191 -0.9995,4.62371 -0.0205,2.51436 0.21764,3.00945 1.72643,3.58308 0.96285,0.36608 1.86572,0.6656 2.00625,0.6656 0.14059,0 0.35093,-1.14915 0.46744,-2.55367 0.21785,-2.62605 1.38423,-3.46793 3.19215,-2.304 1.34368,0.86507 -0.0116,4.57148 -3.13919,8.58611 l -2.49219,3.19885 1.17764,4.21438 c 1.01098,3.61817 2.67796,11.03254 3.56725,15.86663 0.14318,0.77818 1.03588,2.55777 1.98386,3.95464 0.94792,1.39687 1.7235,2.92627 1.7235,3.39867 0,1.5718 5.18516,11.60376 10.2302,19.79295 5.44676,8.84119 7.40121,10.6877 15.36323,14.51448 8.25582,3.968 15.38533,4.5226 19.59596,1.52436 5.54429,-3.94789 9.1744,-16.95964 10.44342,-37.43381 0.6582,-10.61798 1.71776,-23.43773 2.07307,-25.08156 0.18256,-0.84459 0.78671,-1.53561 1.34266,-1.53561 0.65567,0 1.01071,-0.68171 1.01071,-1.94063 0,-1.06735 0.56715,-3.6011 1.26035,-5.63055 0.69321,-2.02946 1.1257,-4.08151 0.96116,-4.5601 -0.57541,-1.67368 6.89268,-14.04177 11.11642,-18.41021 3.76783,-3.89687 4.37135,-4.26557 6.98257,-4.26557 2.4483,0 2.91724,0.23506 3.26954,1.63892 0.82117,3.27178 -0.17649,18.47992 -1.63859,24.97824 -1.25497,5.57785 -1.45863,8.62905 -1.45767,21.83973 0,17.61413 0.54511,20.98323 4.82822,29.91493 2.81684,5.87408 6.89808,10.89456 11.38061,13.99984 2.71031,1.87759 9.04458,3.45936 16.91896,4.22496 7.7097,0.74959 8.26777,-0.64544 5.76555,-14.4114 -1.05902,-5.82602 -1.35849,-10.50579 -1.37228,-21.44348 -0.01,-7.69509 -0.45918,-18.15066 -0.99876,-23.23459 -1.36075,-12.82001 -3.6731,-28.01956 -4.39872,-28.91323 -1.26753,-1.56105 -3.47723,-10.25243 -3.46126,-13.61388 0.0218,-4.59564 1.09342,-9.23307 2.62493,-11.35984 0.6758,-0.93842 1.43869,-2.55081 1.69524,-3.58308 0.35012,-1.40848 0.88294,-1.87685 2.13518,-1.87685 2.00911,0 4.59009,3.48129 6.2207,8.39059 0.60448,1.82001 1.48933,3.45886 1.96633,3.64189 1.13996,0.43744 2.69147,4.14695 4.44697,10.63217 0.7833,2.89361 2.64507,7.34687 4.13734,9.89612 3.08049,5.26264 5.63048,11.59295 5.04893,12.53392 -0.79435,1.28527 -3.49756,0.6454 -4.24994,-1.00601 -0.65949,-1.44738 -5.23014,-3.7517 -5.97132,-3.01049 -0.4899,0.48992 4.50744,50.70394 5.16536,51.90201 0.3579,0.65181 0.65076,3.44763 0.65076,6.21293 0,7.53359 0.74603,13.41796 1.70104,13.41796 2.96556,0 10.6683,-8.78946 15.25177,-17.40353 1.79427,-3.37219 1.81543,-3.57353 1.794,-17.06229 -0.0205,-13.06548 -0.14796,-14.35104 -2.97232,-30.02962 -1.62283,-9.00889 -3.03415,-17.43124 -3.13625,-18.71633 -0.1021,-1.2851 -0.72283,-2.72938 -1.37945,-3.20951 -1.79994,-1.31615 -1.88272,-14.52565 -0.11418,-18.2171 0.68665,-1.43325 1.42231,-4.28987 1.6347,-6.34804 0.29695,-2.87697 0.61288,-3.65514 1.36669,-3.36589 0.53924,0.20693 1.10263,0.37624 1.25203,0.37624 0.63178,0 2.9528,5.39529 3.39014,7.88039 0.26112,1.48403 0.89754,3.37316 1.41426,4.19807 0.51664,0.82492 0.7562,1.97725 0.53234,2.56073 -0.22392,0.58349 0.0765,2.26956 0.66762,3.74684 0.98469,2.46109 1.77393,7.41172 3.85791,24.19954 0.41455,3.33976 1.45883,8.2537 2.32061,10.91987 0.86178,2.66617 1.77243,7.12814 2.02373,9.9155 0.25122,2.78736 0.72221,5.39789 1.0466,5.80118 0.32445,0.40329 0.75811,1.96174 0.96374,3.46322 0.89809,6.55791 1.73162,9.16137 4.38788,13.70557 4.15869,7.11442 11.47705,16.25721 18.0463,22.5451 7.09265,6.78882 10.16646,8.07273 19.31867,8.06924 6.8155,-0.003 9.44746,-0.97318 15.35606,-5.66274 1.68916,-1.34066 3.18402,-2.50991 3.32196,-2.59833 0.4213,-0.27013 -5.85783,-11.53204 -12.78948,-22.93848 -3.61407,-5.94716 -7.8806,-13.02134 -9.48118,-15.7204 -3.14792,-5.30829 -8.40836,-18.16201 -10.07302,-24.6131 -0.56893,-2.20464 -2.56399,-6.98635 -4.4336,-10.62602 L 766.5979,416.225 v -8.69923 c 0,-8.72019 0.55541,-11.33946 2.40455,-11.33946 1.22746,0 7.19503,7.45468 16.52114,20.63823 3.91395,5.5328 7.39923,10.23451 7.74512,10.44828 1.03807,0.64156 0.75586,3.23284 -0.3076,2.82473 -0.51508,-0.19765 -2.40148,-0.57904 -4.19207,-0.84756 l -3.25555,-0.4882 0.45468,1.9689 c 0.97637,4.22765 15.72569,32.70352 22.38763,43.22264 1.05683,1.66881 1.92155,3.68045 1.92155,4.47032 0,0.78986 0.35872,1.79478 0.79708,2.23318 1.88068,1.88068 2.59504,6.15887 2.60514,15.60153 0.008,7.74708 -0.19096,9.80891 -1.0135,10.49156 -0.60871,0.50519 -1.02374,1.99659 -1.02374,3.67884 0,1.91629 -0.58127,3.70618 -1.80143,5.54699 -4.48356,6.76404 -8.84564,9.47458 -17.12508,10.64128 -12.66042,1.78403 -19.68851,-1.01226 -30.91543,-12.3004 -6.4462,-6.48132 -13.7163,-15.97065 -16.51622,-21.55778 -0.56435,-1.12612 -1.23824,-3.21891 -1.49766,-4.65064 -0.25941,-1.43175 -0.7719,-2.50309 -1.13887,-2.38076 -0.36698,0.12233 -1.88593,3.85933 -3.37554,8.30444 -1.48954,4.44511 -3.942,10.45335 -5.44983,13.35163 -2.52256,4.84859 -4.37286,7.36012 -11.8903,16.13896 l -2.6927,3.14455 1.87679,33.20903 c 1.0322,18.26496 2.30409,39.35145 2.82647,46.85886 2.76859,39.792 3.77677,55.09352 3.93483,59.718 0.16905,4.94774 0.29381,5.28963 3.73692,10.23737 1.95916,2.81528 6.52598,8.65058 10.14857,12.96734 3.6226,4.31675 6.88348,8.69323 7.24643,9.7255 0.72726,2.06859 2.19612,2.48064 2.84203,0.79729 0.22788,-0.59375 0.41427,-3.33971 0.41427,-6.10214 0,-2.76242 0.28043,-5.19588 0.62311,-5.40769 0.34268,-0.2118 0.83012,-1.61036 1.08312,-3.10791 0.253,-1.49755 0.71955,-2.88322 1.03677,-3.07927 0.31722,-0.19606 0.95911,-2.11717 1.42648,-4.26915 0.8916,-4.10611 9.21964,-23.28542 13.40474,-30.8711 5.78978,-10.49416 18.79083,-28.57576 29.85443,-41.52088 l 6.48763,-7.59104 -2.55907,-1.29018 c -9.20709,-4.64183 -23.5162,-8.96081 -29.71793,-8.96987 -3.33029,-0.005 -13.29125,-3.3232 -19.75929,-6.5825 -4.31266,-2.17319 -6.41624,-5.49304 -7.18404,-11.33769 -0.33278,-2.53375 -0.35046,-4.60682 -0.0389,-4.60682 0.31128,0 0.56592,-2.11699 0.56592,-4.70442 0,-3.55211 0.25075,-4.80064 1.02374,-5.09727 0.56305,-0.21606 1.02373,-1.15341 1.02373,-2.08299 0,-3.54128 12.80272,-11.75917 20.73771,-13.31123 18.28688,-3.57688 38.50978,-4.67601 65.7732,-3.57481 43.1267,1.74191 72.21019,4.93226 76.36013,8.37641 1.13116,0.93878 1.23374,7.28808 0.18066,11.18068 -0.40622,1.50148 -1.51793,4.48825 -2.47047,6.63727 -1.96059,4.42323 -2.52549,4.72956 -16.10468,8.73335 -3.82503,1.12779 -7.31249,2.18053 -7.75003,2.33944 -1.54892,0.56253 1.1792,9.13332 6.2725,19.70614 5.11971,10.62757 8.75487,20.2231 8.38141,22.12413 -0.16735,0.85176 -0.63308,0.70434 -2.3546,-0.74526 -1.1803,-0.99387 -2.67782,-1.80703 -3.32783,-1.80703 -1.07963,0 -1.15627,0.84841 -0.88655,9.81456 0.22802,7.57777 0.55063,10.20423 1.41562,11.52434 1.29721,1.97981 5.52074,4.16328 10.40465,5.37894 1.87685,0.46716 3.65433,1.04639 3.94992,1.28717 0.99199,0.80803 2.74476,19.83138 1.90461,20.67152 -0.55657,0.55659 -2.75547,0.099 -8.25465,-1.71779 l -7.49601,-2.47646 -0.007,2.84042 c -0.0123,9.55281 1.57703,31.07702 2.4412,33.06382 0.70781,1.62722 0.97487,5.16657 0.97487,12.91888 0,6.4305 0.31716,11.55469 0.79736,12.88263 0.72453,2.00366 1.00176,2.17183 3.03627,1.84169 1.23142,-0.19983 4.74161,0.003 7.80045,0.44987 3.05879,0.44727 5.68788,0.68684 5.84233,0.53237 0.64871,-0.64866 -2.58787,-60.5618 -3.76892,-69.76871 -0.33708,-2.62759 -0.59957,-5.39168 -0.58339,-6.14242 0.0838,-3.88063 -2.51292,-22.02422 -3.31833,-23.18595 -1.92401,-2.77503 -0.69567,-10.29608 2.98466,-18.27541 1.99164,-4.31802 2.72293,-5.2893 3.9824,-5.2893 2.4006,0 3.7019,0.71694 3.7019,2.03959 0,1.30326 7.18179,16.11108 12.88012,26.55684 5.42587,9.9464 4.76474,11.9976 -2.33283,7.23815 -2.52207,-1.69125 -4.85203,-3.07499 -5.17772,-3.07499 -0.32568,0 -0.59213,2.63992 -0.59213,5.86649 0,4.28469 0.31129,6.39347 1.15451,7.82086 1.02988,1.74352 1.05854,2.43696 0.26528,6.42758 -0.70583,3.5512 -0.71559,4.68232 -0.0471,5.48772 1.60535,1.93436 2.03983,0.98757 2.03983,-4.44542 0,-6.30769 -0.76187,-5.91952 8.53565,-4.34872 4.18585,0.7072 6.81461,0.87384 7.23004,0.45835 0.4155,-0.4155 0.27729,-2.24634 -0.38015,-5.03554 -1.37618,-5.83839 -1.30356,-10.58984 0.27893,-18.25914 1.29551,-6.27819 2.77263,-9.66949 4.2118,-9.66949 1.52011,0 5.37591,4.63404 5.37591,6.46096 0,1.00101 0.73764,2.79767 1.63914,3.99257 1.97425,2.61675 2.93512,4.84873 7.29208,16.93764 4.46281,12.38278 4.45599,12.44984 -0.81721,8.03483 l -3.33657,-2.79352 v 2.48617 c 0,3.49654 1.46954,5.93717 4.6518,7.72568 4.008,2.25262 9.01578,8.08388 12.01232,13.98757 l 2.62691,5.17537 -0.34773,16.60014 c -0.27763,13.24965 -0.57138,17.11229 -1.45568,19.13757 -0.60926,1.39559 -1.10782,3.42723 -1.10782,4.51478 0,1.08755 -0.61609,2.76057 -1.36908,3.71783 -0.75299,0.95727 -2.82606,4.45379 -4.60682,7.77007 l -3.23774,6.02959 0.13193,11.60235 c 0.0725,6.3813 0.28685,29.26183 0.47617,50.84562 l 0.34425,39.24326 4.13064,3.06158 c 3.6684,2.71896 4.13065,3.32615 4.13065,5.4258 0,1.83885 0.18202,2.18223 0.81899,1.54524 1.60249,-1.60248 1.91097,-0.74308 1.91097,5.32343 0,5.5372 0.12531,6.14243 1.27169,6.14243 1.15225,0 1.27353,-0.62493 1.29175,-6.6543 0.0143,-4.77315 -0.33462,-7.64634 -1.23449,-10.16353 -1.14119,-3.19224 -1.21163,-4.98013 -0.77988,-19.79225 0.26105,-8.95565 0.20447,-22.11831 -0.12572,-29.25035 -0.70276,-15.1787 0.36548,-50.04334 2.12248,-69.27288 1.65395,-18.10141 1.49541,-37.34816 -0.40765,-49.48063 -3.55046,-22.63496 -3.54732,-19.31867 -0.0294,-31.22398 1.45173,-4.91274 2.75372,-5.82518 4.86917,-3.41246 2.55381,2.91266 6.67176,13.82998 6.67176,17.68791 0,1.52426 0.44574,2.54178 1.36499,3.11584 0.87543,0.54673 1.36498,1.59159 1.36498,2.91338 0,1.13352 1.07185,5.12899 2.38183,8.87885 1.31004,3.74984 2.38496,7.66248 2.38872,8.69475 0.007,1.03227 0.31401,1.87685 0.68938,1.87685 0.90764,0 0.88084,4.57431 -0.03,5.13724 -1.31461,0.81249 -4.19548,-1.82027 -5.67239,-5.18399 -0.80507,-1.83345 -1.64979,-3.34077 -1.87726,-3.34962 -0.22741,-0.009 -0.61725,17.25948 -0.86636,38.37406 -0.77913,66.04123 -1.91575,119.20067 -2.73167,127.75765 -0.63888,6.69974 -0.6098,9.02698 0.15636,12.52449 0.84144,3.84158 0.82445,4.42449 -0.16127,5.51367 -0.76159,0.84154 -1.10223,2.50719 -1.10223,5.3895 0,2.29436 -0.30712,4.36137 -0.68249,4.59336 -0.85352,0.52751 -0.91071,11.26111 -0.0601,11.26111 0.67267,0 0.96976,-1.60679 2.15982,-11.67936 0.74146,-6.27568 1.48005,-8.85548 2.3004,-8.03509 0.20878,0.20873 1.061,3.01565 1.89392,6.23759 l 1.51438,5.85807 -1.56168,10.12244 c -0.85892,5.56736 -2.18179,12.57944 -2.9397,15.5824 -1.48646,5.88956 -7.30873,18.34906 -14.63138,31.3108 -4.3384,7.67932 -5.26584,8.79506 -17.61429,21.1902 -14.38084,14.43537 -25.34992,23.35963 -37.59286,30.58503 -11.23768,6.63211 -27.26169,11.51363 -46.66943,14.21715 -12.67782,1.7661 -14.75028,1.6327 -33.87608,-2.18066 -11.05786,-2.20479 -16.2768,-4.22237 -22.85138,-8.83417 l -4.01667,-2.81753 -3.44262,1.87371 c -1.89344,1.03056 -3.95183,2.43643 -4.57426,3.12417 -1.05445,1.16515 -1.05309,1.28063 0.0205,1.69245 0.63349,0.2431 3.02562,2.93683 5.31579,5.98606 2.29017,3.04917 4.93926,6.38537 5.88683,7.41377 2.03546,2.2089 1.73524,2.672 -2.11456,3.2616 -2.83616,0.4342 -2.85575,0.4556 -1.09165,1.191 5.12135,2.1348 31.11711,3.0296 43.60732,1.501 8.74162,-1.0699 19.26216,-3.7832 27.62295,-7.1241 4.12907,-1.65 9.81081,-3.8223 12.62609,-4.8274 14.74549,-5.2643 41.59129,-21.88911 57.35056,-35.51546 11.04565,-9.55079 24.7728,-25.44758 36.48818,-42.25537 7.33364,-10.52149 22.49967,-42.48519 23.94677,-50.47019 0.2687,-1.48267 1.3605,-4.07065 2.4262,-5.75106 1.0657,-1.68041 2.135,-4.15277 2.3762,-5.49413 0.2412,-1.34136 0.7051,-2.77678 1.0308,-3.18982 0.3258,-0.41304 2.1003,-5.94122 3.9435,-12.28485 3.339,-11.49238 3.3565,-11.60496 4.8609,-31.30379 3.0293,-39.66748 0.4297,-70.65125 -8.6488,-103.07853 -5.6963,-20.34641 -16.5756,-44.56568 -23.6187,-52.57927 -3.74688,-4.26318 -3.49183,-4.68155 2.52194,-4.13659 6.33936,0.57445 6.52276,0.32309 6.51666,-8.92908 l -0.01,-6.69915 -2.6612,-3.10441 c -3.72854,-4.34948 -7.48798,-6.76114 -12.7362,-8.17016 -5.68577,-1.52648 -13.39014,-6.52173 -13.10882,-8.49924 0.10551,-0.74168 1.40006,-2.02296 2.88203,-2.85242 3.17406,-1.7766 5.07043,-5.09574 5.63499,-9.86266 0.40185,-3.39284 0.3927,-3.41261 -3.17837,-6.85468 -3.97189,-3.82837 -9.54061,-6.70438 -13.89491,-7.17609 -3.53332,-0.38277 -10.01576,-3.62417 -10.01631,-5.00845 -2e-4,-0.56305 1.45275,-1.79154 3.22887,-2.72996 2.90263,-1.53362 3.28565,-2.01692 3.78625,-4.77744 0.30631,-1.68917 0.39619,-4.58143 0.19977,-6.42726 -0.30023,-2.82145 -0.81162,-3.79282 -3.21078,-6.09812 l -2.8537,-2.74209 -6.20794,3.17041 c -3.41437,1.74372 -10.04696,5.57128 -14.73909,8.50568 -4.69213,2.9344 -10.22031,6.16083 -12.28485,7.16983 -2.06453,1.009 -5.59643,3.37912 -7.84865,5.26691 -4.3921,3.68145 -8.01428,5.12905 -14.73682,5.88963 -4.57562,0.51793 -9.48929,-0.64792 -9.48929,-2.25203 0,-1.90134 2.04645,-4.73089 6.60379,-9.13079 7.47819,-7.21992 16.59654,-15.08937 21.37835,-18.45022 6.65497,-4.67743 6.317,-4.61814 5.7764,-1.01338 -0.27696,1.84727 -0.20605,3.14409 0.17199,3.14409 0.35387,0 4.9155,-1.85185 10.13691,-4.11521 17.94317,-7.778 27.02809,-9.90716 33.83253,-7.92905 3.94016,1.14543 10.19076,5.12802 14.40698,9.17947 l 2.55935,2.45932 v 6.22749 c 0,5.06791 -0.3177,7.00936 -1.70623,10.42654 -0.93843,2.30949 -1.70623,4.32333 -1.70623,4.47523 0,0.15189 1.61239,0.48487 3.58308,0.73995 1.97069,0.25508 6.19361,1.29078 9.38426,2.30155 l 5.80124,1.83775 2.6134,5.11388 c 2.0882,4.08609 2.5461,5.63608 2.2778,7.71213 -0.4338,3.35821 -4.359,9.93279 -6.7638,11.32922 -1.0299,0.59804 -1.8745,1.48851 -1.8768,1.97883 -0.01,1.15596 4.1939,2.97409 12.2805,5.31666 5.7272,1.65909 6.9078,2.2824 10.119,5.34245 1.9994,1.90531 4.4181,4.78544 5.3749,6.40027 1.5649,2.64111 1.7087,3.47073 1.4315,8.2584 -0.2287,3.95048 -0.7058,5.96593 -1.8512,7.81922 -1.6593,2.68474 -6.4426,5.89726 -8.7808,5.89726 -0.7895,0 -1.5956,0.25916 -1.7913,0.57592 -0.8661,1.40122 1.2394,5.64715 4.4723,9.01899 2.9895,3.11795 4.1044,5.12226 7.5549,13.58183 2.2263,5.45825 4.6702,10.93209 5.4308,12.16409 1.7466,2.82899 3.9625,10.04235 3.9694,12.92143 0,1.45739 0.4429,2.42831 1.3087,2.89169 0.8008,0.4286 1.4885,1.79294 1.7834,3.53815 0.2639,1.5623 1.6941,6.24443 3.1781,10.40473 1.4841,4.1603 2.9681,9.56594 3.2978,12.01254 0.3296,2.4466 1.4169,11.05146 2.416,19.12192 l 1.8166,14.67357 -0.6839,29.68838 c -0.4338,18.8295 -0.9661,30.40782 -1.4553,31.65534 -0.4241,1.08182 -1.3645,5.38152 -2.0896,9.55488 -1.5397,8.8608 -2.7709,13.82176 -3.9471,15.90357 -0.4631,0.8199 -0.8421,2.10704 -0.8421,2.86031 0,0.75326 -0.2769,1.54071 -0.6153,1.74987 -0.3385,0.20916 -0.8351,2.27388 -1.1037,4.58826 -0.3539,3.04876 -1.1208,5.19659 -2.7841,7.79676 -1.2627,1.97384 -3.1026,5.99291 -4.0887,8.93124 -0.9861,2.93833 -2.3351,6.41733 -2.9977,7.73113 -0.6626,1.31379 -1.6978,4.10252 -2.3004,6.19725 -1.3525,4.70121 -19.2027,40.78044 -23.2339,46.96087 -3.4971,5.36159 -12.58336,15.95973 -24.87639,29.01558 -15.09726,16.03418 -34.23302,29.41978 -64.26073,44.95108 -28.05585,14.5113 -41.66268,18.0822 -71.41119,18.7406 l -17.15312,0.3796 -0.4787,5.5347 c -0.3854,4.4561 -0.95535,6.4436 -2.92475,10.1995 -2.84326,5.4222 -5.73013,8.0807 -11.42968,10.5251 -3.52821,1.5133 -5.32282,1.7941 -12.96734,2.0293 -8.09708,0.2491 -9.55823,0.098 -16.72104,-1.7352 -9.84938,-2.5201 -20.12838,-6.5718 -39.24326,-15.4688 -15.73136,-7.3221 -19.19296,-8.803 -24.2064,-10.356 -2.21619,-0.6865 -2.8221,-0.7175 -2.2181,-0.1135 1.17778,1.1778 1.05281,3.9706 -0.17765,3.9706 -1.33543,0 -22.76573,10.993 -38.57578,19.7882 -15.79777,8.7882 -18.88195,10.1707 -25.25219,11.3187 -6.18985,1.1156 -9.38876,1.1203 -14.33232,0.021 z m 10.77818,-16.8539 c 3.97544,-1.158 9.69425,-3.3455 12.7084,-4.861 3.01409,-1.5154 6.65989,-3.1716 8.10172,-3.6803 2.87131,-1.0131 11.66876,-6.5825 19.22769,-12.1726 2.65401,-1.9627 5.66591,-3.7795 6.69313,-4.0374 2.87097,-0.7206 2.39097,-2.4807 -0.6917,-2.5365 -1.40764,-0.025 -7.70363,-0.417 -13.99108,-0.87 l -11.43173,-0.8237 v 2.6034 c 0,1.4319 -0.57063,3.7429 -1.26814,5.1356 -0.69744,1.3927 -1.48995,3.4535 -1.7611,4.5796 -0.27115,1.1261 -1.4664,2.9857 -2.65619,4.1324 -1.18979,1.1466 -2.94365,3.1173 -3.89743,4.3793 -3.99115,5.2804 -9.0624,1.7879 -14.82549,-10.2099 -1.71497,-3.5704 -3.20259,-7.5666 -3.30572,-8.8804 -0.10312,-1.3138 -0.20563,-2.6523 -0.22781,-2.9746 -0.0225,-0.3222 -0.73129,-0.4183 -1.57588,-0.2134 -0.84458,0.2048 -2.36565,0.5749 -3.38024,0.8224 -1.80963,0.4414 -1.83679,0.4001 -1.43023,-2.1753 0.22795,-1.4439 1.31769,-4.2376 2.42169,-6.2083 l 2.0072,-3.5831 h -1.60071 c -1.40778,0 -2.20315,1.3399 -6.59758,11.0905 -6.29578,13.9693 -7.49601,19.7766 -5.35681,25.9186 1.1154,3.2023 0.93263,3.0417 5.68352,4.995 5.27668,2.1696 8.49756,2.0882 17.15449,-0.4336 z m 157.90641,-7.1895 c 2.14377,-1.079 5.38806,-4.8636 7.15913,-8.3515 1.52209,-2.9974 2.11654,-3.4804 4.33402,-3.5209 2.3789,-0.044 0.6324,-0.9513 -3.8444,-1.9982 -3.36946,-0.788 -3.57012,-0.7523 -5.25826,0.9359 -0.96531,0.9653 -2.17046,1.7551 -2.67803,1.7551 -0.50763,0 -1.97833,2.1817 -3.26831,4.8482 l -2.34545,4.8482 -3.45402,-0.2865 c -1.89972,-0.1575 -4.90732,-0.9899 -6.6835,-1.8498 -3.98855,-1.9308 -10.68755,-7.9484 -10.68755,-9.6005 0,-2.3621 -2.32647,-4.1002 -7.32811,-5.4746 -6.04763,-1.6619 -8.20355,-1.6951 -16.90033,-0.2603 l -6.82492,1.1261 -9.21363,-4.2676 c -11.32547,-5.2456 -13.64983,-6.2455 -13.64983,-5.8719 0,0.6523 7.41861,4.7921 12.9485,7.2256 3.24388,1.4274 8.03019,3.9703 10.63642,5.6508 12.72383,8.2044 32.17613,15.0867 45.67759,16.1607 6.63818,0.5281 8.56786,0.3468 11.38068,-1.0688 z M 627.6137,1018.9751 c 2.46004,-5.0241 2.40572,-5.9253 -0.29551,-4.9056 -1.76629,0.6666 -2.04311,1.0716 -1.7465,2.5549 0.21683,1.0842 -0.30494,3.1819 -1.35543,5.4493 l -1.70807,3.6866 1.65102,-1.5511 c 0.90812,-0.853 2.46263,-3.2084 3.45449,-5.2341 z m -36.56673,-2.7848 c 0.83489,-0.5848 1.81502,-0.8797 2.17811,-0.6553 0.36301,0.2243 9.0181,-1.3551 19.23356,-3.5097 13.37683,-2.8215 18.64997,-3.6884 18.84666,-3.0984 0.15015,0.4506 0.63137,0.8062 1.06926,0.7902 0.74644,-0.027 11.05404,-13.35564 11.76854,-15.21741 0.22625,-0.5896 -1.6893,-1.34157 -6.16795,-2.42127 -3.57291,-0.86131 -7.15885,-1.7394 -7.9689,-1.95118 -1.27579,-0.33367 -1.41802,-0.16564 -1.06339,1.25633 0.38977,1.56284 -0.16537,1.8802 -11.57499,6.61785 -16.16638,6.71288 -23.01641,8.38698 -36.0664,8.81468 -38.09114,1.2483 -74.62279,-15.16977 -101.83161,-45.76525 -13.49395,-15.17362 -23.47347,-31.56202 -28.25542,-46.40122 -1.2293,-3.81479 -2.63728,-7.54174 -3.12881,-8.28218 -0.65431,-0.98558 -0.89373,-4.66244 -0.89373,-13.7254 v -12.37917 l 3.52009,-7.43184 c 3.44413,-7.27139 3.53094,-7.38261 4.02172,-5.15054 0.85154,3.87302 2.01307,4.24346 2.01307,0.64201 0,-1.89884 -0.33899,-3.27513 -0.85311,-3.46365 -0.68249,-0.25024 -0.68249,-0.49366 0,-1.2171 1.2637,-1.33955 1.17518,-2.29022 -2.89615,-31.09403 -3.0521,-21.59267 -3.75562,-28.30214 -3.78312,-36.08019 -0.0184,-5.25519 -0.32507,-14.62238 -0.68106,-20.81599 -0.35605,-6.19361 -1.09731,-23.08527 -1.64726,-37.53703 -1.65122,-43.39045 -2.45629,-58.07289 -3.49893,-63.81295 -0.88055,-4.8477 -0.87591,-5.5449 0.0416,-6.21766 0.56831,-0.41676 1.0333,-1.28279 1.0333,-1.92451 0,-0.64173 0.98381,-2.59674 2.18629,-4.34446 2.53348,-3.68223 5.28146,-10.02978 5.30487,-12.25369 0.0287,-2.71282 2.42216,-1.81863 5.17683,1.93399 2.88196,3.92597 4.32045,7.44745 4.36433,10.6839 0.0171,1.24465 1.58843,5.34353 3.59803,9.38426 3.42515,6.88707 3.65604,7.17436 5.76596,7.17436 1.34894,0 2.85363,-0.60763 3.89532,-1.57302 l 1.69729,-1.57303 -0.55767,-13.18717 c -0.64113,-15.1612 -0.3093,-17.42126 3.99442,-27.20108 1.50162,-3.41232 3.03483,-6.76043 3.4072,-7.44025 0.37237,-0.67982 0.85926,-2.37697 1.08202,-3.77144 0.46314,-2.89951 0.49406,-2.92739 3.93518,-3.54831 l 2.55934,-0.46181 v 4.48854 c 0,3.36022 0.25737,4.58729 1.02374,4.88138 0.59138,0.22695 1.02374,1.24724 1.02374,2.41605 0,1.11277 0.44628,2.46949 0.99173,3.01495 0.54544,0.54546 1.1964,2.80071 1.44654,5.01167 0.3308,2.92414 0.76493,4.10101 1.59239,4.31741 0.6257,0.16361 1.47882,1.40915 1.89582,2.76785 0.417,1.3587 1.90818,4.52688 3.31384,7.04038 2.40653,4.3033 2.61421,4.49368 3.55789,3.26221 0.84793,-1.10652 0.93802,-4.05966 0.58517,-19.18825 l -0.41707,-17.88045 2.13292,-3.16036 c 1.17307,-1.73819 3.29221,-5.77696 4.70913,-8.97502 1.41692,-3.19807 2.9143,-6.15275 3.32755,-6.56597 0.41318,-0.41321 0.75129,-0.99391 0.75129,-1.29044 0,-0.29653 -2.84087,-1.95764 -6.31305,-3.69136 -3.47217,-1.73371 -11.41767,-6.3427 -17.6566,-10.24219 -6.23892,-3.89949 -12.44031,-7.54824 -13.7808,-8.10835 l -2.43731,-1.01836 -2.31269,2.89319 c -5.13397,6.42256 -5.55923,7.2988 -4.69807,9.68034 0.434,1.20018 0.7891,2.79224 0.7891,3.53792 0,0.83675 1.20951,2.20833 3.15953,3.5828 1.77058,1.24804 2.89567,2.48027 2.55934,2.80309 -0.33012,0.31682 -3.82496,1.103 -7.76634,1.74706 -7.86094,1.28454 -9.73213,2.00576 -12.28485,4.73495 -1.5754,1.68428 -1.70623,2.32784 -1.70623,8.39102 v 6.56685 l 3.57114,2.08181 c 1.96407,1.145 3.57646,2.42462 3.58308,2.84361 0.007,0.41898 -3.04398,1.73053 -6.77898,2.91455 -10.11514,3.20655 -15.48089,7.60566 -17.51314,14.35812 -1.33387,4.43195 -1.15642,4.64954 5.63526,6.90966 3.71214,1.23533 4.33648,1.67753 4.33648,3.07156 0,1.85626 -3.80932,4.96836 -12.50263,10.21428 -3.26558,1.9706 -6.3327,4.48058 -7.90366,6.46798 -3.05899,3.86993 -9.63821,18.7327 -10.42526,23.5512 -0.30651,1.87685 -0.8209,5.10162 -1.1431,7.16616 -0.32214,2.06454 -0.90178,4.52391 -1.28807,5.46528 -0.38636,0.94136 -1.07943,4.62682 -1.54025,8.18989 -0.46088,3.56309 -1.10952,7.09257 -1.44149,7.84331 -0.47187,1.06717 -2.64574,39.05574 -4.17896,73.02658 -0.18107,4.01219 -0.14687,4.09931 1.69203,4.31091 1.51172,0.17394 1.88675,0.57228 1.9279,2.04747 0.43175,15.48558 1.05309,21.08301 2.7413,24.69609 2.05218,4.39197 3.35008,9.28692 3.35008,12.63478 0,1.30841 0.30712,2.37893 0.68249,2.37893 0.37537,0 0.68249,0.49453 0.68249,1.09896 0,0.60442 1.04756,4.52021 2.32798,8.70176 1.28035,4.18155 2.53532,9.11289 2.78886,10.95854 0.25348,1.84567 0.88117,3.99719 1.39488,4.78119 0.51371,0.78399 3.39778,8.79467 6.40907,17.80151 3.01129,9.00684 5.75156,16.84903 6.08946,17.42703 0.33797,0.57807 0.82923,2.61251 1.09172,4.5211 0.37769,2.74587 0.81783,3.62526 2.10889,4.2135 1.95643,0.8914 4.91333,6.52032 7.69796,14.65439 1.5455,4.51433 3.25569,7.59735 7.34675,13.24429 9.95482,13.74073 15.5333,20.91863 17.81316,22.92031 1.25053,1.09806 2.79767,2.88332 3.43805,3.96739 0.64032,1.084 1.55874,1.97097 2.04086,1.97097 0.48211,0 0.87659,0.23717 0.87659,0.52702 0,0.83598 15.76268,14.94786 20.7919,18.61434 5.45474,3.97667 32.15995,17.34867 41.38901,20.72447 13.92098,5.092 27.1865,8.2186 38.99032,9.1899 3.85199,0.3169 7.47281,0.6189 8.04617,0.6712 0.57336,0.053 1.72561,-0.3835 2.5605,-0.9683 z M 429.96275,833.27492 c -2.99607,-1.6255 -4.69179,-5.76615 -4.83122,-11.79667 -0.11405,-4.9345 -0.0369,-5.23033 1.41501,-5.43655 1.24875,-0.17735 1.5356,0.1077 1.5356,1.52581 0,0.95915 0.3708,3.13036 0.82404,4.82491 l 0.82404,3.081 4.80652,-0.002 4.80651,-0.002 2.56153,-5.44249 2.56146,-5.44248 -1.44838,-5.30474 c -0.79668,-2.91755 -2.06461,-6.53316 -2.81774,-8.03464 -2.2198,-4.42574 -8.15297,-13.227 -13.06998,-19.38804 -2.51874,-3.15602 -5.01591,-6.78255 -5.5492,-8.05897 -1.27838,-3.05949 -2.06973,-9.06628 -1.19443,-9.06628 0.97316,0 12.49901,12.08669 14.96888,15.6973 1.15546,1.68916 4.21459,7.67803 6.79809,13.30858 l 4.69718,10.23737 v 10.57862 c 0,12.0427 -0.14974,12.51953 -5.33081,16.97116 -2.85779,2.45545 -3.69814,2.81755 -6.48366,2.79377 -1.76022,-0.015 -4.04322,-0.48464 -5.07344,-1.04357 z m -8.70552,-83.17209 c 0,-1.64147 6.06291,-9.8706 9.80017,-13.30164 2.38626,-2.19076 2.33241,-5.58981 -0.1954,-12.3365 -1.58693,-4.23552 -2.1983,-5.15108 -3.54322,-5.30644 -1.22316,-0.1413 -2.04748,0.44194 -3.33158,2.35726 -3.677,5.48463 -6.97384,9.21566 -7.59463,8.59484 -0.34739,-0.34732 -0.81538,-2.18391 -1.04012,-4.08131 -0.38445,-3.2459 -0.22413,-3.73497 2.71243,-8.27439 3.54922,-5.4865 7.7142,-9.79808 10.6328,-11.00701 1.87542,-0.77681 2.13108,-0.67267 4.39893,1.79186 4.7311,5.14135 10.31682,20.2654 8.01082,21.69054 -0.34343,0.21229 -1.43795,2.51475 -2.43213,5.11657 -2.36449,6.18772 -4.71977,9.33576 -9.89565,13.22658 -4.81989,3.62313 -7.52242,4.17269 -7.52242,1.52964 z m 308.98428,263.81177 c 15.68386,-6.2481 29.6533,-9.6284 39.79137,-9.6284 h 5.30357 l 1.32328,-2.5593 c 0.89168,-1.7248 1.85938,-2.62333 2.96748,-2.75553 0.95535,-0.11397 6.59962,2.10493 13.47156,5.29603 10.95904,5.089 13.08363,5.7527 13.08363,4.0869 0,-0.3457 -2.36367,-3.8595 -5.25252,-7.8083 l -5.25259,-7.17965 -6.17914,-0.11739 c -3.3986,-0.0648 -12.78232,-0.0389 -20.85278,0.0566 -19.15187,0.22748 -25.07344,-1.00285 -42.35473,-8.79997 -4.17419,-1.88341 -7.87138,-3.42434 -8.21597,-3.42434 -0.34452,0 -4.23281,-2.25078 -8.64055,-5.00177 -4.4078,-2.75099 -10.20516,-6.27565 -12.88298,-7.83248 -2.67789,-1.5569 -5.04839,-3.29868 -5.26788,-3.87061 -0.62885,-1.63873 -3.5022,-1.26698 -4.4912,0.581 -0.64106,1.19784 -0.67451,1.98141 -0.12824,3.00228 0.61704,1.15287 1.11949,1.29558 3.03859,0.86274 1.98598,-0.44792 2.70846,-0.20338 5.30221,1.79482 3.68961,2.84237 13.44091,8.73684 16.72042,10.10708 1.33059,0.55596 2.23011,1.31694 1.99888,1.69101 -0.89898,1.45459 -9.15678,5.49781 -13.3511,6.53697 -2.42701,0.60128 -5.46143,1.57164 -6.74308,2.15633 -2.74819,1.25367 -12.98195,0.77955 -18.35254,-0.85024 -1.7624,-0.53487 -3.28115,-0.97576 -3.37499,-0.97986 -0.0938,-0.007 -0.17062,0.45331 -0.17062,1.01637 0,0.56305 -0.61424,1.63798 -1.36498,2.38872 -1.44006,1.44006 -1.8355,4.4061 -0.6825,5.11868 0.37537,0.23198 0.6825,0.98034 0.6825,1.66296 0,2.14285 1.73864,2.83755 8.99435,3.59395 7.28491,0.7594 19.04478,4.3087 35.36759,10.6745 3.94139,1.5371 7.54392,2.8043 8.00556,2.816 0.4617,0.012 3.84003,-1.1742 7.5074,-2.6353 z m -77.27844,-16.0159 c 1.23893,-0.94074 1.26644,-1.13662 0.29832,-2.12043 -0.96634,-0.98211 -1.30328,-0.98511 -3.58308,-0.0328 -1.62426,0.67867 -2.51641,1.50244 -2.51641,2.32368 0,0.69969 -0.46068,1.65456 -1.02374,2.12195 -3.43907,2.8541 2.81241,0.7542 6.82491,-2.29264 z m -28.01839,-11.18665 c -0.53848,-1.03226 -0.98094,-2.26075 -0.98326,-2.72996 0,-0.46921 -0.46491,-0.85312 -1.02797,-0.85312 -0.56305,0 -1.5713,-0.53746 -2.24048,-1.19436 -0.66925,-0.65689 -3.04944,-2.55456 -5.28931,-4.21711 -2.23994,-1.66248 -9.29362,-8.26559 -15.67492,-14.67357 -14.68244,-14.74372 -24.38071,-22.89608 -31.05336,-26.10325 -9.56293,-4.59637 -21.76417,-8.18559 -40.26699,-11.84539 -11.29428,-2.234 -25.36152,-6.13471 -29.21698,-8.10158 -6.81809,-3.47832 -14.28646,-11.31612 -20.10764,-21.10216 -2.95375,-4.96563 -3.24947,-5.89948 -4.22537,-13.34396 -1.43999,-10.98493 -1.37385,-13.30254 0.43461,-15.22758 l 1.48394,-1.57959 h -4.23841 -4.2384 l 0.38192,6.31304 c 1.00558,16.62099 1.41944,19.22995 3.43723,21.66911 0.4658,0.56305 1.061,3.09683 1.32267,5.63058 0.44464,4.30563 0.38683,4.60682 -0.88451,4.60682 -3.20948,0 -10.06764,-12.71123 -10.86267,-20.13353 -0.43905,-4.09822 -0.71109,-4.80597 -1.91357,-4.97802 -1.29039,-0.18462 -1.47404,0.36813 -2.31098,6.95561 -0.90042,7.08726 -0.89141,7.21318 0.93631,13.07547 1.9595,6.28486 6.16317,16.47548 10.96381,26.57895 2.34334,4.93182 4.258,7.61121 9.71479,13.59495 13.27691,14.55891 24.47387,23.19912 39.43238,30.42827 20.5866,9.94909 38.66709,15.03604 53.79561,15.13534 6.35932,0.0416 27.04536,-3.12226 34.41716,-5.26426 4.07147,-1.18303 4.74536,-0.97549 9.54887,2.94079 1.89692,1.54652 2.90059,2.91185 2.90059,3.94562 0,1.27195 0.43331,1.63456 2.2181,1.85603 4.85667,0.60271 4.62906,0.6915 3.54683,-1.38314 z m -53.19809,-10.8497 c -3.05927,-1.59812 -3.7537,-2.86435 -3.7537,-6.84484 v -3.61325 l 2.2181,1.35243 c 1.21995,0.74378 3.06268,1.35351 4.09495,1.35495 1.87337,0 1.87685,-0.007 1.87685,-4.89572 0,-4.30174 -0.32501,-5.56913 -2.66909,-10.40799 -1.54468,-3.1886 -3.97435,-6.83222 -5.76739,-8.64888 -2.33569,-2.36647 -2.90503,-3.3324 -2.3131,-3.92432 1.54284,-1.54284 3.23862,-0.73136 5.93515,2.84019 3.19208,4.22789 6.65395,11.62385 8.88187,18.97537 3.30333,10.89994 -0.92655,17.77017 -8.50364,13.81206 z M 540.646,962.6543 c -1.58099,-2.6611 -3.72026,-5.74385 -4.75396,-6.85037 l -1.87944,-2.01199 -7.91376,3.48317 c -5.33197,2.34681 -8.41704,3.34844 -9.4564,3.07018 -0.84841,-0.22713 -4.07639,-2.27815 -7.17319,-4.55788 -6.15642,-4.53202 -6.57471,-5.43543 -4.25499,-9.18886 2.41076,-3.90071 10.62168,-9.1965 14.25874,-9.1965 2.26547,0 5.49003,1.89453 10.85817,6.37952 l 2.89233,2.41643 7.31795,-4.39695 c 4.02485,-2.41828 7.77862,-4.396 8.34168,-4.39491 1.57826,0 9.36324,7.27441 11.2678,10.52429 1.1461,1.95582 1.69954,3.92494 1.69954,6.04749 0,3.08322 -0.087,3.20908 -4.26557,6.17157 -4.22333,2.99422 -9.70524,5.99418 -12.57743,6.88313 -1.28841,0.39871 -1.87085,-0.18591 -4.36147,-4.37832 z m 129.03811,25.66079 c 0,-0.75634 -5.09459,-3.13864 -6.71203,-3.13864 -2.0504,0 -4.09686,-1.19054 -7.45458,-4.33676 -1.90906,-1.78881 -2.16336,-2.40073 -1.80089,-4.333 0.46109,-2.45772 -0.55739,-2.95102 -3.1871,-1.54359 -2.26662,1.21299 -1.46455,2.93362 2.61838,5.61731 2.1506,1.41351 4.7197,3.21331 5.70918,3.99947 1.4881,1.18235 3.39594,1.89139 10.65642,3.96043 0.0938,0.0266 0.17062,-0.0747 0.17062,-0.22522 z M 801.1923,976.21718 c -1.14959,-1.84089 -3.19979,-1.65402 -3.19979,0.29163 0,0.86335 -0.34787,1.91766 -0.77313,2.34285 -0.42519,0.4252 -0.56893,1.30513 -0.31941,1.95541 0.39435,1.02763 0.75716,0.88826 2.77215,-1.06476 1.97233,-1.91159 2.19926,-2.43785 1.52018,-3.52513 z m 84.15911,1.09751 c 11.82034,-2.54194 29.18557,-9.55051 38.97448,-15.72992 l 2.84189,-1.794 -9.13521,-5.0417 c -5.02437,-2.77296 -9.48976,-5.04627 -9.92314,-5.05194 -0.43338,-0.007 -1.71155,1.60215 -2.84026,3.57284 -1.12877,1.9707 -2.95546,4.64402 -4.05932,5.94068 l -2.007,2.35753 -2.90257,-2.48447 c -3.94173,-3.37397 -6.96455,-4.69698 -11.71654,-5.12783 -3.08568,-0.27982 -4.0082,-0.61704 -4.00308,-1.4632 0.01,-1.56113 3.00958,-7.81521 6.33884,-13.21378 l 2.84087,-4.60682 h 5.33681 c 5.37278,0 8.20942,0.85762 10.00915,3.02624 2.03799,2.45567 4.57883,1.01268 9.09221,-5.1636 0.99623,-1.36327 2.61469,-2.68028 3.59659,-2.92673 2.16616,-0.54367 7.04904,1.56666 13.94084,6.02497 l 4.80228,3.10657 v 4.00629 c 0,4.25233 0.25942,3.73616 -6.70609,13.34489 -2.15886,2.97819 -2.24144,3.23931 -0.77633,2.45519 7.07586,-3.78687 16.55697,-11.75147 30.43024,-25.56299 l 15.09917,-15.03187 4.46281,-8.53114 c 2.45458,-4.69213 4.95039,-10.19929 5.5462,-12.2381 1.23197,-4.21536 1.40682,-7.95624 0.4009,-8.57792 -0.37537,-0.23198 -0.68249,-1.17149 -0.68249,-2.08774 0,-1.02585 -0.39332,-1.66596 -1.02374,-1.66596 -0.56306,0 -1.02374,0.40908 -1.02374,0.90915 0,0.49999 -1.61238,4.11248 -3.58308,8.02773 -3.58035,7.11323 -6.96564,12.22038 -8.10029,12.22038 -1.08482,0 -0.62953,-3.96896 0.71976,-6.27401 0.72665,-1.24145 2.15763,-4.71413 3.18,-7.71709 1.69292,-4.97263 1.88238,-6.55642 2.12323,-17.74478 0.24085,-11.192 0.17015,-12.16658 -0.79476,-10.95534 -1.03247,1.29603 -1.12352,1.26984 -3.61502,-1.04019 -1.9625,-1.81953 -3.03477,-2.31893 -4.61842,-2.15099 -1.96168,0.20803 -2.04993,0.35058 -1.80519,2.91705 0.24706,2.59075 0.17711,2.69833 -1.75462,2.69833 h -2.01191 l -0.68741,6.99554 c -0.76589,7.79398 -3.35403,15.45877 -7.20158,21.32785 -5.34404,8.15191 -22.90974,18.21211 -49.63431,28.42662 -15.78296,6.0324 -28.70088,11.64139 -42.18193,18.31547 l -12.09655,5.98866 -8.92337,9.12423 c -8.64526,8.83977 -11.89262,12.69339 -11.89262,14.11304 0,1.43964 17.20827,6.86695 26.27592,8.28722 5.8065,0.90942 23.58602,0.30794 29.68838,-1.00436 z m -99.49777,-4.44745 c 1.39406,-0.38977 2.71939,-1.0075 2.94509,-1.37277 0.22577,-0.36527 -1.67033,-5.80527 -4.21356,-12.08897 -3.71713,-9.18415 -4.67732,-12.31726 -4.89579,-15.97514 -0.28924,-4.84214 -0.45802,-4.49967 3.90877,-7.92864 0.95125,-0.74699 1.43582,-1.62822 1.14979,-2.09102 -0.3207,-0.51897 -3.35602,1.89678 -8.63973,6.87617 l -8.14533,7.67612 -0.0807,4.10382 c -0.0444,2.25707 -0.29333,5.02512 -0.55322,6.15123 -0.34343,1.48837 0.15199,3.8012 1.81433,8.46999 1.25776,3.5323 2.47212,6.72227 2.69857,7.0887 0.4843,0.78363 10.21512,0.15199 14.01182,-0.90949 z m -23.11441,-5.26495 c -0.52436,-5.91952 -1.52912,-11.29134 -2.24601,-12.00823 -0.39796,-0.39796 -3.08479,0.94416 -7.10958,3.55148 -3.55838,2.30512 -7.10842,4.19118 -7.88892,4.19118 -2.50939,0 -1.55956,2.06208 1.59198,3.45614 1.65606,0.73258 5.26474,1.82873 8.01927,2.43588 2.75454,0.60721 5.30003,1.37263 5.65663,1.70097 1.71244,1.57656 2.32033,0.55323 1.97663,-3.32742 z m -125.8147,0.10941 c 0,-1.58086 0.46989,-2.85193 1.32464,-3.58308 0.72856,-0.62325 3.82537,-3.89723 6.88184,-7.27557 6.11355,-6.75734 10.90328,-13.49237 10.90328,-15.33135 0,-0.72904 -2.23175,-2.66997 -5.80118,-5.04538 l -5.80118,-3.86065 v 4.22653 c 0,2.32457 0.63943,6.50517 1.42088,9.29021 0.78152,2.78497 1.24302,5.77217 1.02572,6.63818 -0.38595,1.53759 -6.73155,7.15367 -8.08295,7.15367 -1.20221,0 -0.17363,-22.3176 1.20569,-26.15928 0.66174,-1.84307 0.92129,-3.53578 0.58892,-3.84024 -1.29291,-1.18433 -40.58074,-28.52575 -46.7304,-32.52079 -10.19185,-6.62121 -27.91437,-15.25944 -27.91437,-13.60597 0,0.25341 0.76247,1.46047 1.69442,2.68226 0.93194,1.2218 2.78968,4.59208 4.12839,7.48953 2.23338,4.83384 2.87998,5.59871 7.84599,9.28075 6.64508,4.92704 14.63057,9.76072 23.18573,14.03441 7.4481,3.72067 12.79897,7.63244 17.32239,12.66356 2.96754,3.30066 4.49188,6.34151 3.61734,7.21612 -0.2098,0.2098 -2.16623,-0.9905 -4.34754,-2.66731 -6.01125,-4.62095 -12.41855,-8.35356 -24.44084,-14.23821 -6.00592,-2.93983 -12.44175,-6.50701 -14.30188,-7.92714 -3.09401,-2.36217 -7.3793,-7.21386 -7.99006,-9.04608 -0.16776,-0.50341 -2.3819,-0.17943 -6.72384,0.98381 -8.01668,2.14767 -9.8373,2.18431 -11.20917,0.2257 -1.89187,-2.7011 -1.97581,-5.69177 -0.34534,-12.30937 1.39638,-5.66755 1.83952,-6.5653 4.33996,-8.79186 l 2.78477,-2.47976 -4.43449,-1.36478 c -2.43888,-0.75061 -6.78546,-1.88566 -9.65896,-2.52235 l -5.22461,-1.15769 -7.74273,5.85111 c -4.25854,3.21809 -9.78399,6.92784 -12.27877,8.24395 -4.39231,2.31713 -4.77471,2.39295 -12.06979,2.39295 -4.14361,0 -8.32162,-0.29954 -9.28448,-0.66556 -1.66057,-0.63137 -1.75066,-0.92437 -1.75066,-5.69437 0,-5.72788 1.33127,-10.2297 5.20489,-17.60121 3.14847,-5.99153 2.8006,-6.99136 -2.54522,-7.31568 -2.02584,-0.12291 -5.88034,-0.0227 -8.56547,0.22267 -4.0297,0.36824 -4.94199,0.67535 -5.22543,1.75907 -0.25846,0.98832 -0.94968,1.31294 -2.79596,1.31294 -1.34894,0 -2.4526,0.30712 -2.4526,0.68249 0,0.37537 0.92136,0.68249 2.04747,0.68249 2.03513,0 2.04761,0.0236 2.06857,3.92432 0.0287,5.35964 1.06025,12.7183 2.41404,17.22199 2.05969,6.85188 6.95076,9.57777 21.45207,11.95557 16.01336,2.62569 44.72537,10.56477 54.25807,15.00274 2.62759,1.22329 6.80826,3.04814 9.29041,4.05516 5.86793,2.38059 15.0084,8.3339 23.12793,15.06354 7.09218,5.87809 21.14256,19.87831 29.11188,29.008 7.3952,8.4719 10.47263,10.15861 10.47263,5.73996 z M 821.3574,955.48807 c 11.61341,-14.57344 22.73747,-26.98517 28.19037,-31.45337 4.84521,-3.97026 36.04197,-18.08711 51.84219,-23.45907 27.78544,-9.44694 39.43011,-14.87493 46.3735,-21.61638 5.92396,-5.75163 6.73783,-7.6975 6.13055,-14.65855 -0.46621,-5.34513 -0.45768,-5.38531 1.15403,-5.40037 l 1.62371,-0.0152 -1.66678,-1.28109 c -2.41008,-1.85237 -6.0752,-2.78352 -10.95603,-2.78352 h -4.27458 l 0.46914,4.94806 c 0.28699,3.02637 0.85134,5.24234 1.45316,5.70579 1.34314,1.03428 1.2349,2.13118 -0.29081,2.94772 -0.70112,0.37525 -1.47213,1.669 -1.71339,2.875 -0.2412,1.20601 -1.06257,4.28813 -1.82526,6.84914 -1.13321,3.80509 -1.64473,4.65643 -2.79794,4.65643 -4.20756,0 -17.83487,-10.17988 -21.45664,-16.02861 l -1.9853,-3.20599 -6.8249,0.32795 c -8.21638,0.39482 -14.04773,2.17794 -26.11533,7.98556 -9.46391,4.55455 -18.09633,9.50213 -29.42944,16.8671 -4.2737,2.77733 -9.80188,6.07704 -12.28485,7.33271 -6.19777,3.13428 -22.15313,12.84927 -26.57704,16.18249 -1.99942,1.50646 -3.72033,2.63448 -3.8242,2.50686 -0.10388,-0.1277 -1.17266,-2.84272 -2.37493,-6.03336 -1.20235,-3.19065 -2.81726,-6.87494 -3.58875,-8.18731 l -1.40259,-2.38612 3.31794,-2.93242 c 8.56608,-7.57081 30.14837,-21.65039 53.29794,-34.76979 6.46831,-3.66572 11.76615,-7.04885 11.77297,-7.51807 0.007,-0.46921 -0.11227,-0.85311 -0.26474,-0.85311 -0.63833,0 -23.39048,7.9503 -33.19256,11.59851 -17.8479,6.64274 -33.4734,13.72151 -39.70339,17.98661 -5.39871,3.6961 -5.16011,3.81642 -4.91565,-2.48025 0.11971,-3.08351 0.6898,-7.29556 1.26691,-9.36009 0.57705,-2.06454 1.05281,-5.05511 1.05725,-6.64574 0.008,-2.64127 0.25136,-3.04556 2.8133,-4.66286 6.36874,-4.02037 27.05662,-12.45013 39.16095,-15.957 26.74984,-7.74999 45.76828,-15.9189 53.65945,-23.04804 2.61845,-2.36563 2.62002,-2.37025 1.5281,-4.52122 -1.79317,-3.53264 -2.28757,-3.9567 -3.36106,-2.88318 -1.21955,1.21955 -11.08912,4.98481 -16.32984,6.22986 -2.25222,0.53507 -9.93025,1.7651 -17.06228,2.7334 -13.98733,1.89904 -15.84343,1.87056 -29.34714,-0.45027 -9.31757,-1.60138 -10.1655,-1.62075 -9.62797,-0.21999 0.26173,0.68207 -1.07213,3.13124 -3.62403,6.65429 -4.19992,5.79823 -8.50275,12.82706 -12.86217,21.01078 -1.40272,2.6333 -3.24149,6.06109 -4.08607,7.61732 -0.89393,1.6472 -1.53561,4.01758 -1.53561,5.67277 0,3.30135 -1.64337,7.67516 -3.09278,8.23135 -0.71839,0.27568 -1.00053,1.47501 -0.9965,4.23587 0.007,2.11822 -0.36486,7.61218 -0.81763,12.20876 -0.69095,7.01376 -1.0208,8.4201 -2.05157,8.74722 -1.62453,0.51562 -2.02201,2.37612 -1.77645,8.314 l 0.20379,4.92779 3.65085,-1.69401 c 2.00796,-0.93167 4.0151,-1.69401 4.46035,-1.69401 1.3237,0 5.19738,8.6026 5.19738,11.54222 0,1.7207 0.35756,2.78123 1.02374,3.03689 0.6068,0.23286 1.02374,1.25865 1.02374,2.5186 0,1.39508 0.29326,2.02952 0.85311,1.84566 1.2839,-0.42158 1.45337,-4.00084 0.29907,-6.31728 -0.56115,-1.12611 -1.20153,-2.50816 -1.42313,-3.07121 -0.22154,-0.56306 -0.66659,-1.48442 -0.98887,-2.04748 -0.32234,-0.56305 -2.62629,-5.24665 -5.11984,-10.40799 -3.22157,-6.66817 -4.24278,-9.38429 -3.52848,-9.38429 0.91201,0 9.93789,10.22007 12.23468,13.85338 1.06175,1.67961 3.13339,10.35251 3.13339,13.11789 0,0.98498 0.3839,2.17654 0.85311,2.6478 0.46921,0.47133 1.41228,3.59734 2.09573,6.94681 0.68344,3.34939 1.83515,8.01579 2.55934,10.36977 1.54448,5.02007 1.69859,9.22708 0.37831,10.32289 -0.64755,0.53739 -0.83203,1.72315 -0.59514,3.82516 0.2702,2.39732 0.10668,3.13714 -0.76773,3.47265 -0.61117,0.23451 -1.11117,1.00777 -1.11117,1.71838 0,1.02892 0.50143,1.29195 2.46271,1.29195 2.34033,0 2.44045,0.0932 2.0141,1.87686 -0.24672,1.03226 -1.35557,3.3571 -2.46414,5.16632 -1.98216,3.23508 -1.99008,3.28592 -0.47849,3.07121 1.06468,-0.15117 5.04723,-4.62313 12.95833,-14.55058 z m -6.30261,-25.40322 c 0,-0.33039 1.45883,-1.30424 3.24184,-2.16411 12.13251,-5.85114 38.88645,-21.30759 52.72246,-30.45912 14.62634,-9.67434 14.07372,-9.15394 14.59276,-13.7409 0.48914,-4.32256 3.06329,-10.57706 5.36363,-13.03224 2.47117,-2.63744 4.70981,-2.02631 8.75009,2.38872 1.9752,2.15838 4.15473,4.84569 4.84337,5.9718 1.55089,2.53607 1.6491,7.84108 0.19717,10.64885 -1.16652,2.25584 -0.34289,2.20765 -11.09629,0.64877 l -3.62519,-0.52558 -3.88222,3.86843 c -8.33417,8.30451 -19.53427,15.01914 -42.78422,25.64976 -19.3225,8.83485 -28.3234,12.2497 -28.3234,10.74562 z m -135.51325,35.82998 c 0.58435,-0.83427 1.0722,-2.2931 1.08414,-3.24183 0.0123,-0.94873 0.47263,-2.32115 1.02374,-3.04978 0.55111,-0.7287 1.00203,-1.56393 1.00203,-1.85617 0,-0.29232 -2.3737,-1.62816 -5.27484,-2.96857 -6.46497,-2.98699 -8.37499,-4.67616 -8.37499,-7.4066 0,-1.13137 1.45883,-5.54784 3.24184,-9.8143 l 3.24183,-7.75719 2.38872,0.19833 2.38872,0.19833 -0.0676,-6.8155 c -0.0519,-5.23655 -0.40773,-7.68512 -1.53527,-10.56919 -0.80711,-2.06454 -1.46763,-4.69043 -1.46783,-5.83531 -4.1e-4,-2.53088 -1.02115,-3.68177 -2.84292,-3.20539 -0.87236,0.22809 -1.25312,0.77436 -1.05848,1.51862 0.16721,0.63929 -0.10851,4.05215 -0.6126,7.58405 -0.50409,3.53196 -0.89652,9.80003 -0.87202,13.9291 0.0396,6.63771 -0.16694,8.02132 -1.78096,11.9436 -1.00402,2.43991 -2.10569,4.72796 -2.4481,5.08456 -0.34247,0.3566 -0.62264,1.67873 -0.62264,2.93806 0,2.14828 -3.413,8.183 -6.84934,12.11088 -1.76465,2.01703 -0.67001,4.19159 2.5476,5.06115 3.70832,1.0021 14.04718,3.35588 15.01229,3.41778 0.44792,0.0287 1.2925,-0.63035 1.87685,-1.46463 z m 62.13491,-3.27759 c -0.5722,-0.92587 -8.61495,-4.90521 -13.1381,-6.50033 -1.97656,-0.69709 -3.49415,-1.56624 -3.37239,-1.93151 0.12176,-0.36527 7.10194,-4.98642 15.51146,-10.26932 13.11121,-8.23644 15.7158,-10.15561 18.2776,-13.46719 l 2.98747,-3.86201 -0.95139,-4.28346 c -0.52334,-2.35596 -1.24965,-4.38289 -1.61416,-4.50437 -0.36452,-0.12155 -3.57251,2.2716 -7.12883,5.31797 -14.53175,12.44789 -18.04364,14.25226 -27.62343,14.19248 -12.49949,-0.0781 -13.65072,-0.41694 -19.10976,-5.62578 -2.6276,-2.50713 -6.46661,-5.85182 -8.53115,-7.4326 -2.06453,-1.58086 -4.9054,-4.08465 -6.31311,-5.56395 -1.40771,-1.4793 -2.71912,-2.52999 -2.91431,-2.3348 -0.19519,0.19512 0.41871,3.54786 1.36417,7.45042 0.94552,3.90255 1.71946,8.35328 1.71994,9.89039 6.2e-4,1.81884 0.41796,3.14956 1.19525,3.81076 2.30907,1.96407 21.74854,13.38639 28.83526,16.94312 6.73333,3.37929 19.4652,8.83117 20.68564,8.85765 0.3037,0.007 0.35762,-0.30275 0.11984,-0.68747 z m 60.86042,-9.36727 c -1.41316,-2.82606 -1.67681,-4.58013 -2.05545,-13.67692 -0.43509,-10.45202 -1.04039,-13.10657 -3.44358,-15.10101 -0.86308,-0.71634 -1.4344,-0.59964 -3.28681,0.67137 -2.94768,2.02249 -5.9959,4.84336 -5.9959,5.54886 0,0.30923 1.50735,2.96747 3.34967,5.9071 1.84232,2.93962 4.44923,7.52829 5.79326,10.1971 2.09648,4.16306 6.07813,9.69534 6.97786,9.69534 0.15507,0 -0.44744,-1.45883 -1.33905,-3.24184 z m -33.40993,-30.52784 c 3.35131,-2.86858 5.97037,-7.69072 4.8865,-8.99674 -0.4933,-0.59445 -0.61636,-5.80158 -0.37994,-16.08148 0.32678,-14.21106 -0.11773,-16.86896 -1.27373,-7.61642 -0.25382,2.03123 -0.72017,3.853 -1.03637,4.0484 -0.3162,0.19547 -0.38991,2.33647 -0.16373,4.75788 0.44833,4.80112 -0.18994,6.27032 -5.67805,13.06971 -1.26289,1.56468 -2.29618,3.58199 -2.29618,4.48295 0,2.20663 1.9664,8.71077 2.6336,8.71077 0.29327,0 1.78178,-1.06878 3.3079,-2.37507 z m -34.2378,-7.08351 c 2.26717,-1.07253 6.0294,-3.71589 8.36052,-5.87414 l 4.23848,-3.92405 v -6.05629 c 0,-10.67808 -2.35412,-21.75847 -6.28957,-29.60348 -3.64314,-7.26245 -17.0528,-26.9271 -18.39021,-26.96849 -0.61765,-0.0191 -7.59647,13.29558 -13.06268,24.92195 -3.52275,7.49275 -4.88725,11.35249 -6.26316,17.71618 -1.55164,7.17674 -1.66705,8.5824 -0.97862,11.91865 1.56836,7.60063 3.32953,10.01617 11.43016,15.67642 6.52223,4.55747 14.24844,5.36608 20.95508,2.19325 z m -12.8709,-14.4063 c -1.00661,-1.1962 -2.01403,-2.90762 -2.23878,-3.80312 -0.74753,-2.97835 -0.007,-20.31029 0.88253,-20.60587 0.44806,-0.14913 1.18365,-1.40308 1.6345,-2.78647 0.45086,-1.38339 1.06619,-2.67693 1.36731,-2.87451 0.30118,-0.19759 0.76043,-3.17895 1.02059,-6.62526 0.40254,-5.33274 0.7102,-6.48887 2.0657,-7.76226 1.48633,-1.39634 1.62406,-1.41445 2.06269,-0.27133 0.75518,1.96781 -0.93767,12.46109 -2.45526,15.2194 -0.9086,1.65143 -1.70411,5.17304 -2.29324,10.15127 -0.77087,6.51384 -0.76029,7.97812 0.0728,10.06675 0.53623,1.3443 1.35508,2.44414 1.81986,2.44414 1.09847,0 2.81732,-1.97779 3.41048,-3.92433 0.56298,-1.8475 0.93931,-1.87432 2.93532,-0.20911 1.27503,1.06366 1.53561,1.96605 1.53561,5.31827 0,5.12756 -1.69947,7.04086 -6.67893,7.51935 -3.06022,0.29402 -3.44958,0.15342 -5.14114,-1.85692 z m -59.24005,11.27783 c 1.06742,-4.23909 1.00176,-9.93517 -0.11452,-9.93517 -0.85244,0 -5.62312,5.86957 -6.38553,7.85637 -0.43782,1.14092 3.24518,5.11097 4.74134,5.11097 0.60803,0 1.29223,-1.17962 1.75871,-3.03217 z m -10.35831,-5.81367 c 1.74445,-1.06366 10.43932,-11.01814 10.43932,-11.95161 0,-0.12831 -4.37648,-2.6854 -9.7255,-5.68249 -17.87923,-10.01768 -31.91692,-16.54451 -37.76444,-17.55853 -1.47022,-0.25495 -7.74068,-2.2385 -13.93429,-4.40786 -6.19361,-2.16937 -13.56452,-4.62924 -16.37979,-5.46638 -11.02477,-3.27827 -22.63299,-10.83768 -28.89608,-18.81756 -4.25793,-5.42498 -9.12068,-13.85578 -11.12836,-19.29376 l -1.73919,-4.71072 -12.46496,-6.91445 c -6.85569,-3.80294 -12.75966,-6.91444 -13.11987,-6.91444 -1.17382,0 -2.26567,11.82625 -2.26567,24.54037 v 12.44207 l 6.65429,-0.23457 c 5.80104,-0.2045 7.24888,-0.51619 11.29093,-2.43077 3.23563,-1.53259 4.72708,-1.94504 4.93585,-1.36499 0.16462,0.45717 -0.12128,3.59531 -0.63526,6.97364 -0.51399,3.37833 -0.79749,6.37276 -0.63001,6.65429 0.16748,0.28153 2.15763,0.51187 4.42254,0.51187 22.22131,0 64.01354,20.97605 101.96545,51.17774 3.30818,2.63264 6.1889,4.78542 6.40157,4.78406 0.21273,0 1.37078,-0.60257 2.57347,-1.33591 z m 46.26036,-23.79291 c 0.61042,-2.13101 1.59184,-5.56373 2.18104,-7.62827 1.27216,-4.45761 7.04857,-15.72252 13.65577,-26.63109 2.61926,-4.32441 4.9727,-8.70089 5.22986,-9.7255 0.25716,-1.02461 0.79544,-1.86293 1.19613,-1.86293 1.46825,0 9.79082,8.73211 15.28638,16.03855 7.17264,9.53609 12.52692,18.40076 13.05237,21.60983 0.25642,1.56601 0.85182,2.61581 1.59362,2.80978 0.98538,0.25771 1.33284,1.78649 2.06857,9.10225 0.48641,4.83593 1.084,9.34914 1.32806,10.02931 0.36097,1.00606 2.03293,-0.3938 8.96657,-7.50744 11.88736,-12.19584 12.16698,-12.67037 15.61008,-26.48885 3.52186,-14.13453 6.60085,-22.27972 9.83832,-26.02615 1.34096,-1.55178 3.05722,-4.3921 3.8139,-6.31183 2.16459,-5.49164 5.39632,-11.58745 6.98584,-13.17698 0.80002,-0.80002 1.52018,-2.28829 1.60038,-3.30725 0.11957,-1.52054 -0.29771,-2.06335 -2.32757,-3.02782 -8.41546,-3.9985 -18.95368,-13.47266 -27.56911,-24.78535 -4.89462,-6.42703 -4.89844,-6.43013 -5.42608,-4.39401 -1.12154,4.3283 -9.26366,10.1328 -20.32125,14.48696 -2.06317,0.81243 -5.90519,2.81965 -8.53783,4.46051 -4.80836,2.99691 -12.3189,6.61818 -15.1812,7.3197 -1.9032,0.46645 -1.96189,-0.49463 -0.20598,-3.37435 2.66916,-4.37752 12.79023,-10.96767 27.74765,-18.06734 4.08983,-1.94127 8.71985,-4.40073 10.28896,-5.46545 1.56912,-1.06471 3.48863,-1.93584 4.26558,-1.93584 1.81938,0 1.80505,-0.0964 -0.7171,-4.82846 -1.23469,-2.31653 -1.94851,-4.46807 -1.69851,-5.11959 0.29975,-0.78114 0.1412,-1.01249 -0.52006,-0.75875 -4.62689,1.77552 -11.15137,3.36173 -15.10272,3.67175 -6.6775,0.52391 -21.5296,-1.84882 -21.46688,-3.4295 0.0171,-0.43811 1.23169,-1.71793 2.69837,-2.84404 1.46674,-1.12611 2.68096,-2.28745 2.69836,-2.58076 0.0855,-1.44333 -2.26512,-1.09615 -4.56191,0.67377 -4.18804,3.22735 -8.92241,6.02627 -17.1652,10.14788 l -7.76757,3.88402 -5.19977,-0.44601 c -2.85984,-0.2453 -6.7353,-0.84198 -8.61216,-1.32597 -3.36789,-0.86848 -3.41518,-0.91791 -3.62471,-3.78814 -0.15444,-2.11672 0.33674,-4.08117 1.80478,-7.21842 l 2.01704,-4.31024 5.37237,-2.07182 c 2.95484,-1.1395 6.21497,-2.28328 7.24471,-2.54173 2.54917,-0.6398 2.87902,-1.4446 1.02558,-2.50256 -3.16976,-1.80936 -13.85362,-6.53505 -14.24448,-6.30062 -0.22263,0.1335 -1.10782,2.61104 -1.96715,5.50565 -1.21954,4.108 -1.39283,5.53446 -0.78964,6.50033 1.40416,2.24844 0.81367,4.69378 -2.93082,12.13622 -6.14768,12.21895 -12.28772,21.97604 -17.10065,27.17444 -5.08087,5.48782 -13.50684,12.11083 -17.92038,14.08586 l -2.89383,1.29497 -1.42415,-1.81052 c -2.16637,-2.75403 -3.48979,-3.95514 -3.90283,-3.54206 -0.56019,0.56018 3.81103,6.62973 10.83707,15.04748 3.44638,4.12908 7.48059,9.35014 8.9648,11.60236 3.10281,4.70826 10.08129,18.75793 10.08129,20.2965 0,0.56917 0.42976,1.39153 0.95508,1.82747 0.5795,0.48096 1.14249,2.91044 1.4318,6.17862 0.32254,3.64389 0.78629,5.50477 1.43371,5.75319 0.604,0.2318 0.95685,1.39178 0.95685,3.14577 0,1.52822 0.58476,3.91805 1.29953,5.3107 1.40034,2.72874 17.21728,17.99003 20.30555,19.59225 l 1.87549,0.97296 1.17914,-5.82441 c 0.64857,-3.20341 1.67859,-7.56795 2.28894,-9.69903 z m 60.02594,-49.02502 c -3.35465,-1.74747 -7.4814,-3.36093 -9.17057,-3.58547 -2.89253,-0.3845 -3.06602,-0.52724 -2.98242,-2.45333 0.13466,-3.10405 4.186,-12.98747 6.65327,-16.23101 2.57723,-3.38814 5.62073,-4.16342 7.79781,-1.98635 0.72139,0.72144 2.50549,1.52922 3.96452,1.79504 1.90866,0.34775 3.65802,1.46831 6.23593,3.99451 3.19167,3.12765 3.58308,3.823 3.58308,6.36578 0,4.49203 -6.23088,15.27806 -8.82585,15.27806 -0.63601,0 -3.90112,-1.42975 -7.25577,-3.17723 z m -80.0718,1.75667 c -2.95198,-1.18117 -14.20443,-9.54576 -15.1049,-11.22837 -0.84309,-1.57534 -0.59712,-1.91878 5.47023,-7.63825 9.0497,-8.53083 8.07517,-8.11576 13.11592,-5.58641 8.899,4.46533 13.50316,9.0524 13.50316,13.45298 0,2.26022 -2.18049,4.40219 -9.45285,9.28588 -3.81287,2.56052 -4.83497,2.79314 -7.53156,1.71417 z m 30.25641,-26.20719 c -1.85672,-0.93119 -5.52572,-3.35508 -8.15331,-5.38642 -2.6276,-2.03134 -8.19243,-5.40033 -12.36627,-7.48666 -8.83301,-4.4152 -11.3598,-6.84257 -11.04462,-10.61003 0.36595,-4.3746 1.90039,-3.8372 21.70466,7.60158 l 18.08602,10.44633 0.21464,2.58803 c 0.40022,4.82439 -2.52883,5.81235 -8.44112,2.84717 z m -144.80803,85.84481 c 2.84954,-0.575 2.87841,-1.41269 0.0891,-2.57818 -2.93834,-1.22773 -4.36884,-0.51125 -4.36884,2.18821 0,1.336 0.25341,1.59774 1.19436,1.2337 0.6569,-0.25416 2.04536,-0.63383 3.08541,-0.84373 z m 92.98584,-28.35806 c -1.06414,-3.86652 -7.54467,-15.89982 -11.17327,-20.74704 -2.20615,-2.94704 -7.67953,-9.50439 -12.16309,-14.57189 -7.97751,-9.01654 -8.21303,-9.21455 -11.01091,-9.25614 -1.78881,-0.0266 -2.85909,0.2634 -2.85909,0.77462 0,1.96825 -6.38396,4.37329 -15.28911,5.7599 -3.58854,0.55877 -8.77022,0.47584 -21.75462,-0.34816 -9.37429,-0.5949 -17.17578,-0.94998 -17.33671,-0.78906 -0.67867,0.67869 20.7087,13.8559 23.61038,14.54683 0.9703,0.23104 2.07129,0.64627 2.44666,0.92272 0.37537,0.27646 1.60386,0.65462 2.72997,0.84037 1.12611,0.18575 4.81156,1.27795 8.1899,2.42711 3.37833,1.14916 10.61281,3.50089 16.07656,5.22607 7.08665,2.23759 13.83574,5.07697 23.54596,9.9059 7.48652,3.72307 14.01639,6.78613 14.51092,6.8068 0.60694,0.0254 0.7618,-0.46138 0.47645,-1.49803 z m 305.40433,-6.95526 c 0,-0.72035 -1.30977,-1.02299 -1.69934,-0.39266 -0.2358,0.3815 0.0498,0.69363 0.63534,0.69363 0.58516,0 1.064,-0.13544 1.064,-0.30097 z M 473.27175,847.7018 c 4.71117,-3.02544 5.09104,-3.80111 1.86156,-3.80111 -1.12809,0 -2.05601,-0.47024 -2.35678,-1.19436 -1.18706,-2.85781 -2.16036,-71.45565 -1.08823,-76.69782 l 0.45392,-2.21958 3.9678,3.59321 c 2.18227,1.97627 4.143,3.41797 4.35716,3.20377 0.21424,-0.2142 -0.97603,-2.15649 -2.64499,-4.3162 -2.02086,-2.61506 -3.77513,-4.14693 -5.25191,-4.58591 -1.89849,-0.56435 -2.16773,-0.90791 -1.87201,-2.38872 1.16345,-5.82608 0.56183,-9.9653 -3.32653,-22.88679 -2.14616,-7.13204 -4.03373,-13.27446 -4.19445,-13.64983 -0.52675,-1.22967 0.41011,13.54985 1.12474,17.74478 0.38452,2.2567 0.96573,25.69433 1.29489,52.21059 0.32842,26.46361 0.90608,49.80482 1.28363,51.86935 0.37756,2.06454 0.75716,5.74999 0.8435,8.1899 0.15635,4.41664 0.15881,4.42172 0.56169,1.15349 0.39052,-3.16784 0.56496,-3.38565 4.98601,-6.22477 z m 423.77367,-6.09636 c 3.12418,-0.90195 5.9948,-2.1648 6.50408,-2.8613 0.50142,-0.68572 0.91167,-2.87723 0.91167,-4.87002 0,-4.16579 -0.31947,-4.05186 6.97,-2.48543 4.14702,0.89116 5.66693,0.96831 7.0111,0.35587 1.60433,-0.73099 1.71612,-1.10535 1.71537,-5.74464 -4.8e-4,-2.72948 -0.51303,-9.10883 -1.13908,-14.17633 -0.62605,-5.06749 -1.1631,-11.2867 -1.19354,-13.82045 -0.03,-2.53375 -0.15247,-4.60681 -0.27115,-4.60681 -0.11876,0 -3.12697,2.15945 -6.68494,4.79878 -3.55795,2.63933 -6.76238,4.6175 -7.12089,4.39592 -0.86909,-0.53714 -0.84097,-12.4097 0.0307,-12.94841 0.37537,-0.23199 0.68249,-2.22497 0.68249,-4.42885 v -4.00705 l 5.20645,-2.5042 c 3.88378,-1.86804 6.26772,-3.63177 9.38425,-6.94285 2.29781,-2.44125 6.64794,-6.07368 9.66701,-8.07206 3.01907,-1.99838 8.48733,-6.57355 12.15156,-10.16705 4.91346,-4.8185 7.12084,-6.53365 8.40877,-6.53365 1.66159,0 1.72718,-0.14075 1.35065,-2.90059 -0.21765,-1.59532 -0.77094,-17.56417 -1.22958,-35.48633 -0.45863,-17.92215 -1.02298,-32.89173 -1.25414,-33.26574 -0.23116,-0.374 -2.49246,-1.40465 -5.02519,-2.29032 -2.53272,-0.88567 -4.95782,-1.96317 -5.38909,-2.39443 -0.43126,-0.43127 -1.93377,-0.78413 -3.33888,-0.78413 -3.1123,0 -4.29158,-1.43344 -5.45454,-6.62996 -0.50191,-2.24282 -1.02251,-3.32949 -1.34512,-2.80756 -0.55542,0.89866 -0.13405,53.89117 0.48552,61.0612 l 0.36206,4.19053 3.19556,1.18642 c 1.75755,0.65254 6.19,2.41351 9.84986,3.91328 7.70212,3.15623 7.86585,3.49369 4.81982,9.93259 -3.21542,6.79683 -10.33777,13.09995 -14.80249,13.09995 -0.92211,0 -1.80444,-0.38363 -1.96073,-0.85251 -0.15629,-0.46888 -0.49822,0.96857 -0.75982,3.19434 -0.48818,4.15387 -2.61578,8.57804 -4.12511,8.57804 -0.46703,0 -1.57048,0.7678 -2.45206,1.70622 -0.88157,0.93843 -2.33378,1.70623 -3.22709,1.70623 h -1.62426 l 0.20761,-15.01552 c 0.11412,-8.25853 0.15588,-15.0152 0.0927,-15.01481 -0.0635,3.9e-4 -0.60059,-0.18571 -1.19436,-0.41356 -0.95596,-0.36682 -1.07956,0.80255 -1.07956,10.21107 v 10.62533 l -2.90059,0.72461 c -1.59532,0.39854 -4.17622,1.05625 -5.73537,1.46158 -1.67108,0.43442 -3.77241,1.70915 -5.11869,3.10513 l -2.28389,2.36817 1.87685,-0.46497 c 1.86321,-0.46159 1.87686,-0.43964 1.87686,3.02147 0,2.54099 -0.26031,3.48645 -0.95986,3.48645 -0.78835,0 -1.01603,2.83607 -1.2738,15.86793 -0.26617,13.45256 -0.53385,16.64707 -1.75844,20.98661 -0.79442,2.81528 -1.45139,6.96141 -1.45992,9.21363 -0.0205,5.47162 -1.01548,8.81381 -3.94814,13.26554 -3.36612,5.10962 -7.52447,8.94988 -15.34562,14.17185 -3.66286,2.44559 -6.80492,4.68142 -6.98236,4.96852 -0.17745,0.2871 4.26905,-1.28142 9.88118,-3.4856 5.61205,-2.20417 12.72041,-4.73413 15.79619,-5.62213 z m -401.39662,1.27152 c 3.56601,-0.54959 8.24197,-1.00477 10.39093,-1.0115 3.88024,-0.0122 3.90515,-0.0253 3.59782,-1.88909 -0.17014,-1.03227 -1.0956,-8.78708 -2.05655,-17.23291 -0.96095,-8.44583 -2.06788,-16.27742 -2.45984,-17.40353 -0.39195,-1.12612 -1.37836,-4.45996 -2.19195,-7.40855 -1.41276,-5.12026 -1.77045,-5.67477 -7.9629,-12.34511 -5.89188,-6.34662 -6.54018,-6.85396 -7.10331,-5.55879 -0.34083,0.78388 -0.75913,15.47604 -0.92962,32.64923 -0.29893,30.11233 -0.26467,31.22355 0.96088,31.21174 0.69901,-0.007 4.18852,-0.46191 7.75454,-1.01149 z m 458.96381,-8.70177 c -0.30631,-0.84281 -3.05477,-64.0248 -3.05791,-70.29662 0,-3.77276 -0.8196,-4.16879 -2.11374,-1.02374 -1.05015,2.55215 -18.56663,20.23661 -22.51021,22.72607 -2.44748,1.54504 -5.26337,5.45687 -4.48697,6.23329 0.18619,0.18617 1.50756,-0.45591 2.93642,-1.42685 l 2.59791,-1.76534 0.59322,1.53405 c 1.41269,3.65357 -0.85387,22.43092 -4.34099,35.96309 -1.55274,6.02539 -1.81925,7.93495 -1.16563,8.35007 0.46608,0.29601 7.82484,0.5429 16.3527,0.54864 12.11805,0.008 15.43755,-0.17591 15.1952,-0.84266 z M 617.65929,815.60942 c -1.29605,-1.14378 -3.93777,-3.21732 -5.87051,-4.60788 -3.37022,-2.42474 -3.54377,-2.4729 -4.23773,-1.17611 -0.63813,1.19226 -0.37667,1.50966 2.21066,2.68391 1.61388,0.73246 3.29684,1.3385 3.73985,1.34674 0.44307,0.008 1.97867,1.37036 3.41245,3.02692 1.91535,2.21285 2.67264,2.7193 2.85432,1.90897 0.13854,-0.61766 -0.78944,-2.01796 -2.10904,-3.18255 z m -11.44688,-7.88077 c 0,-0.63698 -1.72418,-1.36499 -3.23282,-1.36499 -0.93522,0 -0.91973,0.17011 0.11998,1.31896 1.11198,1.22876 3.11284,1.25834 3.11284,0.046 z m -10.23737,-3.29531 3.07121,-0.46416 -18.90501,-10.40511 c -10.39776,-5.72282 -19.22749,-10.40512 -19.62163,-10.40512 -1.21873,0 -0.85073,-4.57993 0.40676,-5.06248 0.98695,-0.37872 1.07732,-1.43099 0.74412,-8.66268 l -0.37926,-8.2316 1.81523,0.4321 c 3.13386,0.746 11.64043,4.99292 23.37465,11.66982 6.22705,3.54331 11.77836,6.44239 12.33616,6.44239 0.55774,0 2.83378,-1.41902 5.05774,-3.15337 10.638,-8.2959 23.48767,-15.46232 29.28257,-16.33133 4.16525,-0.62461 15.79429,-7.83327 15.48601,-9.59953 -0.3794,-2.1742 -2.14426,-4.3847 -4.07673,-5.10615 -1.01261,-0.37805 -3.1054,-1.29327 -4.65063,-2.03381 -4.31492,-2.06787 -11.90839,-3.31125 -22.78396,-3.73073 -9.83886,-0.3795 -10.08367,-0.35202 -42.31447,4.7486 -26.59539,4.2088 -31.04366,5.05769 -24.76495,4.72604 l 7.65339,-0.40426 0.80377,1.76409 c 0.61725,1.3548 0.61609,2.44366 -0.007,4.69303 -0.51795,1.87574 -0.85946,9.92322 -0.94976,22.37994 l -0.14093,19.45101 -2.55477,-0.14969 c -3.2142,-0.18832 -8.81649,-2.56554 -10.65294,-4.52039 -1.04394,-1.11116 -1.59676,-3.11986 -2.18084,-7.92307 -0.43024,-3.53899 -1.02421,-7.06724 -1.3198,-7.84055 -0.41256,-1.07941 -2.82074,-2.15909 -10.36663,-4.64786 -10.77177,-3.55263 -11.48606,-3.69411 -11.48606,-2.27497 0,0.53177 -0.3839,1.12263 -0.85312,1.31302 -0.64782,0.26287 -0.6141,0.51236 0.14019,1.03689 0.85195,0.59246 0.87529,1.64357 0.164,7.38874 -0.45604,3.68391 -0.82622,7.5426 -0.82261,8.57487 0.008,2.08637 1.20501,2.54309 1.78977,0.68249 1.46012,-4.64627 1.03404,-4.62295 7.49676,-0.41031 6.2622,4.08187 11.37454,6.35549 14.44391,6.42358 1.36361,0.0302 2.51593,0.85086 4.25826,3.03246 2.39623,3.00039 4.86235,4.52001 5.28372,3.25584 0.12401,-0.37195 0.64133,-1.24499 1.14959,-1.94009 0.87911,-1.20226 1.13552,-1.13223 5.26467,1.43773 4.23281,2.63447 4.56934,2.72031 13.55421,3.45728 10.79462,0.88541 20.92819,1.04084 25.25218,0.38734 z m 292.44349,-17.77388 c 0.57718,-8.77278 1.2162,-16.22047 1.42012,-16.55042 1.77523,-2.87239 -11.97035,4.1158 -34.76979,17.67679 -5.95734,3.54341 -12.19476,7.04556 -13.86086,7.78258 -2.09846,0.92824 -2.96208,1.69174 -2.81043,2.48456 0.18413,0.96244 1.28963,1.17577 6.94851,1.34087 8.69542,0.2537 15.74331,-1.08734 28.33343,-5.3911 5.48109,-1.87366 10.50313,-3.58022 11.16003,-3.79237 1.08332,-0.34983 1.19436,0.24573 1.19436,6.40506 0,3.73492 0.23034,7.02307 0.51187,7.30699 0.69525,0.70117 0.68433,0.80188 1.87276,-17.26296 z m -259.69755,11.15656 c -1.01084,-1.21791 -1.16536,-1.06401 2.74361,-2.73199 5.017,-2.14075 10.635,-5.61208 17.71926,-10.9486 7.54392,-5.68275 11.75434,-10.03488 16.8602,-17.42773 l 3.52616,-5.10547 -1.28575,-3.72458 c -1.75721,-5.09043 -1.74151,-14.35276 0.0362,-21.12811 l 1.34274,-5.11869 -2.20759,-1.88736 c -4.76447,-4.07336 -20.56729,-14.17338 -27.24465,-17.41282 -13.20368,-6.40563 -26.37666,-9.5778 -36.64631,-8.82478 -6.20869,0.45526 -14.55884,2.58908 -28.37356,7.2507 -7.65291,2.58238 -10.33885,3.23371 -10.73879,2.60411 -1.18358,-1.86324 -0.27798,-12.17664 1.5887,-18.09279 0.55732,-1.76629 1.53854,-2.65851 4.65268,-4.2305 7.37876,-3.7248 18.5953,-11.78208 24.67739,-17.72678 l 6.064,-5.92703 -0.0164,-5.41341 c -0.0205,-6.66069 -0.74678,-9.93791 -3.48835,-15.74043 -2.38019,-5.03758 -9.06157,-12.59313 -14.12771,-15.97602 -2.97491,-1.98648 -3.52165,-2.11096 -8.35506,-1.90233 -6.07929,0.2624 -8.01709,1.43261 -13.72019,8.28564 -1.93268,2.32234 -3.8472,4.22244 -4.25458,4.22244 -0.43311,0 -0.7762,-1.57144 -0.82643,-3.78527 -0.0573,-2.54519 -0.61663,-4.78107 -1.70623,-6.82491 l -1.62037,-3.03965 -0.20359,5.10188 c -0.112,2.80604 0.0905,5.72369 0.44997,6.48367 0.35947,0.75998 0.8626,1.99603 1.11812,2.74677 0.84288,2.4767 1.85228,28.24042 2.16016,55.13321 l 0.30295,26.46858 -3.10813,1.37489 c -7.29515,3.22698 -0.91024,3.37044 10.36227,0.23283 23.58274,-6.56408 51.7063,-8.68451 71.06592,-5.35816 11.42238,1.96258 18.95238,5.34365 24.45647,10.98127 l 3.61823,3.70601 v 6.41287 c 0,3.53905 -0.30583,6.6019 -0.6825,6.83467 -0.37537,0.232 -0.68249,1.31033 -0.68249,2.39631 0,2.54892 -4.91407,9.61951 -11.44572,16.46862 -7.67864,8.05183 -14.55044,11.0939 -33.85581,14.98755 -4.7745,0.96296 -8.24729,2.00378 -8.4502,2.53259 -0.70289,1.83167 1.28657,4.24709 7.37159,8.94992 4.68394,3.61995 6.78547,4.83075 8.39827,4.83858 1.18309,0.005 2.61175,0.30817 3.17481,0.67205 1.5612,1.0089 2.31904,0.80827 1.35133,-0.35775 z m -59.6002,-124.53831 c -2.37542,-2.08566 -2.49287,-2.39211 -2.49287,-6.50621 v -4.31744 l 2.90059,1.59076 c 1.59532,0.87493 3.89108,1.79739 5.10169,2.04993 2.06358,0.43047 2.33323,0.25345 4.31566,-2.83317 1.77974,-2.7711 2.05512,-3.7479 1.7394,-6.16989 -0.5204,-3.99261 -2.47608,-7.84592 -4.49086,-8.84846 -3.63147,-1.80704 -4.56846,-5.57869 -1.8314,-7.37209 1.88866,-1.23749 5.50668,-0.32907 6.25947,1.57165 2.40845,6.08082 3.75022,12.97167 3.75022,19.25989 0,6.55358 -0.0655,6.85645 -1.61293,7.44473 -0.8871,0.33728 -1.77154,1.21977 -1.96537,1.96108 -0.47692,1.8237 -3.00426,3.37219 -6.3843,3.91165 -2.4917,0.39768 -3.06814,0.20779 -5.2893,-1.74243 z m 264.28334,106.68108 2.31071,-2.00848 -6.7469,-2.59911 c -3.71085,-1.42952 -12.56815,-4.58293 -19.68292,-7.00759 -17.41411,-5.93457 -24.09632,-10.35579 -26.82089,-17.74582 -0.85844,-2.32844 -2.89888,-11.26251 -2.89888,-12.69284 0,-1.42697 6.47568,-10.33316 10.33278,-14.21094 1.94258,-1.95303 5.37203,-4.25657 8.87239,-5.95954 7.47062,-3.63457 13.54165,-4.34779 37.78286,-4.43871 15.64878,-0.0587 20.02239,0.15907 29.00589,1.44425 19.26898,2.7566 19.09932,2.71024 20.29054,5.54445 0.91692,2.18167 1.0999,2.31272 1.54871,1.10902 1.2753,-3.42068 1.48271,-7.14642 0.45508,-8.17404 -1.23886,-1.23888 -1.51568,-4.25418 -2.47642,-26.97427 -1.18282,-27.97247 -2.41636,-37.37585 -5.38288,-41.03282 -13.1716,-16.23737 -17.04659,-19.70117 -22.64097,-20.23873 -6.94312,-0.66714 -13.19303,4.28379 -16.5266,13.0917 -0.72371,1.91216 -1.81488,4.03219 -2.42482,4.71117 -0.60994,0.67898 -1.03991,2.14081 -0.95556,3.24852 0.0844,1.10771 -0.3508,2.78363 -0.96715,3.72427 -1.43542,2.1908 -0.84118,6.3899 1.46005,10.31694 2.16746,3.69872 9.20305,10.09746 16.28124,14.80735 6.28042,4.17912 19.66879,11.6981 22.72949,12.76508 2.80081,0.97635 3.81786,4.88772 3.51852,13.53106 -0.12961,3.74237 -0.47208,7.04011 -0.76105,7.3283 -0.28903,0.28819 -5.51009,-1.06826 -11.60235,-3.01433 -16.35673,-5.22482 -20.51508,-5.93002 -34.96418,-5.92941 l -12.28484,5.3e-4 -7.46482,2.58271 c -9.65125,3.3392 -18.96767,7.87245 -30.31852,14.75256 -11.58318,7.02093 -12.43479,7.0949 -15.0615,1.30832 -1.8632,-4.10454 -1.93868,-4.17475 -2.78579,-2.59197 -0.64925,1.21314 -0.66857,1.69423 -0.0759,1.89177 0.43707,0.1457 1.30226,1.23531 1.92264,2.42135 3.55149,6.78969 5.12463,22.9513 3.24921,33.38041 -0.34527,1.92 -0.2285,2.56934 0.46751,2.59938 0.5103,0.0221 2.30982,2.1997 3.99899,4.83928 3.45204,5.39435 17.34709,19.3249 24.91093,24.97461 5.83415,4.3577 11.56052,7.47929 15.09521,8.22868 2.63749,0.5592 2.68069,0.53319 9.47449,-5.70643 3.7537,-3.4475 7.86475,-7.17201 9.13569,-8.27668 z m 23.17393,-112.57947 c -2.49976,-1.3917 -3.42809,-2.42015 -4.34017,-4.80833 -1.09656,-2.87128 -1.09437,-3.21325 0.0396,-6.23232 0.6599,-1.75688 2.68969,-6.18318 4.51079,-9.83623 1.82109,-3.65304 3.31103,-7.58902 3.31103,-8.74663 0,-2.33142 1.0537,-4.74497 2.0715,-4.74497 1.33714,0 0.5864,4.23527 -2.0715,11.68609 -1.88674,5.28922 -2.72996,8.77694 -2.72996,11.29202 0,3.40414 0.10763,3.63905 1.66753,3.63905 1.91084,0 3.7924,-2.27636 3.7924,-4.58805 0,-1.13322 0.39571,-1.55437 1.4604,-1.55437 4.4652,0 4.30276,9.30942 -0.24693,14.15238 -1.8662,1.98649 -3.53578,1.92863 -7.46461,-0.25864 z M 502.41891,782.21609 c 0.37796,-1.92133 0.89167,-6.02708 1.1416,-9.12388 0.24993,-3.09681 0.62864,-5.63056 0.84151,-5.63056 0.21287,0 1.47848,0.73708 2.81248,1.63795 2.83405,1.91394 5.49658,2.83004 5.49658,1.8912 0,-1.02353 -4.5759,-4.79159 -7.09914,-5.84589 -1.5008,-0.62706 -2.42721,-1.57159 -2.7318,-2.78521 -0.25348,-1.01001 -1.21641,-3.03324 -2.13989,-4.49607 -1.47984,-2.34421 -1.679,-3.43041 -1.679,-9.15693 v -6.49723 h 2.06891 c 1.13792,0 2.19059,-0.3839 2.33937,-0.85312 0.14872,-0.46921 0.7474,-14.00225 1.33032,-30.07342 0.58298,-16.07117 1.21251,-29.46724 1.39904,-29.76904 0.18652,-0.30181 1.869,-0.75168 3.73889,-0.99972 1.86982,-0.24805 3.58403,-0.74922 3.80926,-1.1137 0.22529,-0.36449 1.14849,-0.66271 2.0515,-0.66271 0.90307,0 1.94653,-0.56903 2.31869,-1.26452 0.62018,-1.15872 -0.27729,-1.07067 -10.72521,1.05221 -6.27107,1.27421 -12.093,2.19296 -12.93758,2.04166 -1.34246,-0.24048 -1.53561,0.0135 -1.53561,2.019 0,1.58418 -0.31681,2.29408 -1.02374,2.29408 -1.4982,0 -1.25203,2.57581 0.34125,3.57084 1.39105,0.86873 1.92292,3.93656 0.68249,3.93656 -0.37537,0 -0.68249,-0.61424 -0.68249,-1.36498 0,-0.75074 -0.30712,-1.36498 -0.68249,-1.36498 -0.80377,0 -0.95105,11.37346 -0.15179,11.7161 0.65847,0.28226 -1.06598,44.76834 -1.80642,46.60162 -0.46423,1.14934 -0.91037,0.77906 -3.28933,-2.72997 -2.95444,-4.35793 -6.83959,-11.60168 -9.04854,-16.87086 -0.75081,-1.79098 -1.83392,-3.43623 -2.40694,-3.6561 -1.48613,-0.5703 -1.36635,-8.28678 0.33394,-21.51254 0.97883,-7.61396 1.17921,-11.18986 0.69805,-12.45547 -1.18385,-3.11373 -1.92203,-1.92537 -2.18274,3.51403 -0.17663,3.68385 -0.71648,6.23513 -1.77851,8.40538 -1.30014,2.65672 -1.52496,4.23534 -1.52496,10.70896 0,4.32574 0.29368,7.77439 0.6825,8.0147 0.37537,0.23199 0.68249,1.4579 0.68249,2.72425 0,1.72656 0.35223,2.41423 1.40811,2.74938 0.85871,0.27252 2.22731,2.16188 3.50753,4.84188 1.15464,2.41723 2.36367,4.55834 2.68677,4.75803 0.32315,0.19969 0.58748,1.36212 0.58748,2.58317 0,1.69356 0.50416,2.59284 2.12583,3.79176 2.13319,1.57713 5.46143,7.90557 6.36348,12.09957 0.28542,1.32712 1.89412,3.55316 4.19234,5.80118 5.46403,5.34458 6.24118,7.428 6.81434,18.2679 0.41365,7.82217 0.61588,8.98045 1.38429,7.92952 0.49501,-0.67689 1.20917,-2.80271 1.58714,-4.72403 z m 365.3881,-22.38194 c 3.83117,-1.93335 10.34412,-4.97954 14.47319,-6.76931 8.04896,-3.48885 9.37245,-4.93323 6.41712,-7.00323 -1.45247,-1.01732 -1.47957,-1.23656 -0.72132,-5.82791 1.08093,-6.54553 1.04831,-7.96241 -0.16025,-6.95935 -1.26247,1.04773 -1.78738,4.05421 -1.04762,5.99999 0.73402,1.93066 -0.0396,1.99025 -7.90039,0.60877 -6.48517,-1.13968 -22.81057,-2.83756 -36.34144,-3.7796 -10.23437,-0.71254 -23.48139,0.12995 -37.69946,2.39763 -9.63664,1.53699 -11.53336,3.29509 -7.35132,6.81407 2.86633,2.41187 7.04549,4.19583 13.82557,5.90177 3.00296,0.75558 7.76334,2.6015 10.57862,4.10204 2.81527,1.50055 7.14636,3.74555 9.6247,4.98889 2.47833,1.24334 7.18356,4.40888 10.45604,7.03452 l 5.95003,4.7739 6.46531,-4.3835 c 3.55598,-2.41093 9.59999,-5.96533 13.43122,-7.89868 z m -114.10404,-2.66722 c 1.4617,-1.15766 2.65756,-2.40414 2.65756,-2.76999 0,-0.36583 -0.95686,-1.85584 -2.12637,-3.31112 -1.43549,-1.78632 -2.24042,-3.65805 -2.47745,-5.76115 -0.27217,-2.41462 -0.62734,-3.1152 -1.57949,-3.1152 -1.06618,0 -12.8984,11.97213 -13.48248,13.64192 -0.11807,0.33771 1.11042,0.9495 2.72997,1.35954 1.61962,0.41004 3.55899,1.02068 4.30973,1.35698 0.75074,0.33631 2.70287,0.63225 4.33798,0.65765 2.33385,0.0362 3.54438,-0.40633 5.63055,-2.05863 z M 538.64576,755.1768 c 0,-0.88261 0.45501,-1.36498 1.28752,-1.36498 0.9088,0 1.3759,-0.60225 1.58802,-2.04747 0.23362,-1.59164 0.0416,-2.04748 -0.86267,-2.04748 -0.63977,0 -1.53847,-0.45211 -1.99704,-1.00471 -0.73422,-0.88461 -0.95398,-0.88461 -1.83856,0 -0.55262,0.5526 -1.76875,1.00471 -2.70246,1.00471 -2.24874,0 -1.5079,1.07973 1.09853,1.60102 1.82601,0.3652 2.06167,0.68734 2.06167,2.81812 0,1.32318 0.30713,2.40578 0.6825,2.40578 0.37537,0 0.68249,-0.61424 0.68249,-1.36499 z m 136.3005,-3.4185 c 0.4731,-0.9351 0.86888,-2.7751 0.87953,-4.0889 0.0321,-3.96142 0.70754,-5.61277 2.1422,-5.2376 1.85317,0.4846 1.57901,-0.19062 -1.25619,-3.09415 -4.43299,-4.53973 -5.07446,-3.58115 -4.81757,7.19896 0.14346,6.02131 0.35203,7.27618 1.18296,7.11616 0.55486,-0.10686 1.39597,-0.95937 1.86907,-1.89447 z m 51.65041,-11.50644 c 3.41982,-3.26025 7.29283,-6.41633 8.60662,-7.01351 1.3138,-0.59718 3.96944,-2.50844 5.90144,-4.24723 1.93206,-1.73879 4.15869,-3.16145 4.94806,-3.16145 1.04435,0 1.43535,-0.42925 1.43535,-1.57578 0,-0.86668 0.45092,-2.17195 1.00203,-2.90059 0.62667,-0.82854 1.01016,-2.92839 1.02374,-5.60562 0.0246,-4.8287 1.14058,-3.21188 -12.39159,-17.95105 -5.03521,-5.48434 -6.97404,-8.14711 -8.07544,-11.09094 -0.79715,-2.13065 -1.96469,-4.38926 -2.59456,-5.01915 -1.07185,-1.07198 -1.1977,-0.62437 -1.96674,6.996 -1.06038,10.50796 -1.65456,13.54945 -3.5684,18.26476 -1.36014,3.35114 -1.81427,3.86756 -3.4014,3.86756 -3.23467,0 -3.46972,-0.83332 -3.46972,-12.30238 0,-10.49291 0.0273,-10.69017 1.70623,-12.26731 1.24336,-1.16804 1.70623,-2.31129 1.70623,-4.21391 0,-1.48425 -0.33245,-2.61101 -0.7704,-2.61101 -1.04749,0 -11.31714,10.05844 -21.15799,20.72281 l -8.10124,8.7792 v 7.3824 7.3824 l 14.97653,11.09461 c 8.23705,6.10205 14.822,11.34451 14.63323,11.64994 -0.18871,0.30541 -0.93932,0.5553 -1.66788,0.5553 -0.72856,0 -1.32471,0.25593 -1.32471,0.56874 0,2.76962 5.09309,-0.1943 12.55061,-7.30379 z m -204.46263,-4.44039 c 0.17649,-2.71502 0.47781,-3.32218 1.92128,-3.87097 0.94156,-0.358 2.61333,-0.6509 3.715,-0.6509 1.27565,0 2.00305,-0.35206 2.00305,-0.96941 0,-0.68866 1.27523,-1.10599 4.40343,-1.44098 l 4.40344,-0.47157 -0.29279,-4.18957 c -0.37285,-5.33686 -0.92935,-29.02863 -1.3888,-59.13014 -0.34057,-22.30847 -0.48628,-24.42726 -2.7731,-40.31505 l -2.41363,-16.7691 2.49969,-4.54763 2.49969,-4.54764 -1.616,-0.73632 c -1.19074,-0.54254 -2.95669,-0.48773 -6.7108,0.20829 l -5.0948,0.9446 0.0843,5.28332 c 0.0566,3.5569 0.65492,7.10924 1.83051,10.87108 0.9604,3.07327 2.2226,8.04473 2.80483,11.04769 0.58224,3.00296 1.50456,6.90148 2.04959,8.66339 0.91509,2.95798 0.90294,3.17283 -0.15909,2.80382 -0.6326,-0.21979 -2.47935,-1.66135 -4.10388,-3.20346 l -2.95369,-2.80382 0.2616,7.50741 c 0.14387,4.12907 0.62345,8.35891 1.06578,9.39965 l 0.80424,1.89225 4.06363,-2.05133 c 5.01296,-2.53052 4.93714,-2.67058 4.67725,8.64574 l -0.18769,8.17246 -5.28931,2.86884 -5.28931,2.86884 -0.0239,4.57652 c -0.0143,2.67324 -0.42984,5.28609 -0.99951,6.28274 -0.72249,1.26383 -0.99719,4.53759 -1.0595,12.62609 -0.0464,6.00593 -0.29026,16.90873 -0.54217,24.22845 -0.53057,15.4182 -0.31961,20.65859 0.81667,20.28492 0.43174,-0.14197 0.87918,-1.70716 0.99425,-3.47821 z m 442.21574,-6.99951 c 1.24623,-0.33397 1.53561,-0.89369 1.53561,-2.97017 0,-3.20178 3.08104,-17.3467 4.42118,-20.29761 1.46121,-3.21742 0.66972,-12.48337 -1.42416,-16.67234 -1.73237,-3.46571 -4.5028,-6.03913 -6.50155,-6.03913 -1.16337,0 -1.27278,0.63127 -1.27134,7.33679 0,12.70737 0.88137,39.07304 1.30178,39.06331 0.22161,-0.005 1.0939,-0.19451 1.93848,-0.42085 z M 679.70282,713.3742 c -0.20066,-0.46921 -2.07601,-4.5992 -4.1675,-9.17775 -2.0915,-4.57856 -4.15126,-9.95318 -4.5772,-11.9436 -0.42594,-1.99043 -3.51524,-11.4463 -6.86511,-21.01304 -6.72056,-19.19311 -7.27857,-20.1934 -16.89283,-30.28315 -5.91508,-6.20763 -18.59543,-17.68609 -24.80999,-22.45844 -4.72277,-3.6267 -37.79297,-20.30424 -51.14427,-25.79241 -8.7892,-3.61285 -18.83486,-6.78688 -21.48019,-6.78688 -1.35427,0 -1.56509,0.34563 -1.56509,2.56579 0,1.82665 0.39325,2.81137 1.36498,3.41824 0.75074,0.46885 1.36498,1.39279 1.36498,2.05322 0,0.66042 0.76781,2.33069 1.70623,3.71171 0.93843,1.38102 1.72964,3.21826 1.75817,4.08276 0.0635,1.92584 1.21265,4.95364 2.99361,7.88847 1.8819,3.10121 4.96246,3.61579 8.0016,1.3366 1.24377,-0.9328 4.04642,-2.69254 6.22801,-3.91052 3.60969,-2.01524 4.31594,-2.1749 7.84865,-1.7743 9.10143,1.03208 18.17434,8.51156 25.03931,20.64174 l 3.41246,6.02971 0.21567,10.59099 c 0.11861,5.82505 0.50251,10.88276 0.85311,11.23936 1.80171,1.83257 -0.0266,17.42177 -2.48277,21.17041 -0.59404,0.90654 -0.97951,2.35704 -0.85673,3.22332 0.21021,1.48289 0.60271,1.60025 6.70691,2.00539 15.05747,0.99935 29.02746,7.0292 43.78913,18.90067 6.76158,5.43775 21.45473,15.13483 22.93253,15.13483 0.54504,0 0.82691,-0.3839 0.62633,-0.85312 z m -50.6032,-45.627 c -2.34626,-2.06003 -2.41247,-2.2544 -2.41247,-7.08085 0,-6.85046 0.54955,-9.22824 2.13279,-9.22824 1.12099,0 1.27967,0.55432 1.27967,4.47008 0,7.2317 1.76902,9.3763 6.65429,8.06709 1.2865,-0.34477 1.53561,-0.88122 1.53561,-3.30705 0,-2.41048 -0.46137,-3.41969 -2.75426,-6.02455 -1.51486,-1.72096 -3.43437,-3.3351 -4.26558,-3.58698 -1.93233,-0.58556 -4.58252,-2.99933 -4.58252,-4.17375 0,-1.22417 3.51483,-1.16549 6.5666,0.10962 4.83674,2.02093 10.32377,7.99466 12.18267,13.26328 0.98354,2.78767 0.96395,3.09262 -0.33305,5.19123 -2.13545,3.4552 -4.13099,4.41829 -9.15481,4.41829 -3.98909,0 -4.6797,-0.21359 -6.84894,-2.11817 z m 133.01759,42.79204 c -0.57029,-2.27224 3.34878,-6.49547 8.45095,-9.10681 2.16616,-1.10869 5.88785,-3.45082 8.27036,-5.20472 8.58335,-6.31867 21.48033,-12.84704 36.55752,-18.50508 6.3789,-2.39381 7.17059,-2.53494 12.11422,-2.15938 2.90912,0.221 5.28931,0.2167 5.28931,-0.01 0,-0.22626 -1.11806,-3.51819 -2.48454,-7.31543 l -2.48461,-6.90404 0.41195,-8.64177 c 0.68297,-14.32722 3.59727,-25.91957 9.49462,-37.76765 4.82951,-9.70273 7.59551,-12.19232 14.84255,-13.35943 5.31906,-0.85661 8.41007,-0.0468 12.19844,3.19593 2.77467,2.375 8.17727,9.73311 10.59438,14.42908 0.74003,1.43765 1.64685,2.21809 2.57736,2.21809 1.37058,0 1.41426,-0.22422 0.96368,-4.94806 -0.25962,-2.72144 -0.94825,-7.09791 -1.53028,-9.7255 -2.90496,-13.11419 -3.02323,-17.83852 -0.61527,-24.5697 l 1.7091,-4.77744 -1.55731,-0.20397 c -0.98006,-0.12837 -4.04636,1.36042 -8.27234,4.01652 -3.69331,2.32128 -11.81113,6.84259 -18.03955,10.04735 -12.33767,6.34816 -26.68057,16.24892 -26.68057,18.41735 0,0.98287 -0.44853,1.18475 -2.2181,0.99838 -2.0313,-0.21395 -3.03449,0.54714 -11.91241,9.03704 -17.24437,16.49085 -25.02389,27.03099 -34.74359,47.07299 -3.19133,6.58038 -6.0683,11.96432 -6.39337,11.96432 -0.32501,0 -0.95174,1.15171 -1.3927,2.55935 -0.44095,1.40763 -1.5141,4.40207 -2.38476,6.65429 -0.87065,2.25222 -1.91002,5.8866 -2.30975,8.07638 -0.44642,2.4454 -1.3899,4.76952 -2.44564,6.02416 -2.18241,2.59367 -2.53751,9.13139 -0.5245,9.65744 2.56726,0.67091 2.9341,0.50023 2.51485,-1.17014 z m 39.16231,-40.6716 c -3.01443,-3.12742 -3.28701,-3.68688 -3.28701,-6.74691 0,-1.83518 0.45877,-4.21639 1.01957,-5.29156 0.58339,-1.11861 1.02128,-3.76935 1.02374,-6.19643 0.007,-4.52768 0.82499,-5.65457 4.11719,-5.65457 0.81012,0 2.25373,-0.61424 3.20812,-1.36498 0.95447,-0.75074 2.28888,-1.36498 2.96536,-1.36498 1.00886,0 1.16474,0.40248 0.86677,2.23854 -0.30283,1.86618 0.24358,3.19192 3.28476,7.96991 4.40227,6.9164 4.78549,9.90498 1.77598,13.85066 -1.83857,2.41045 -8.09708,5.97051 -10.49604,5.97051 -0.65533,0 -2.67059,-1.53459 -4.47844,-3.41019 z m 9.41279,-4.60908 c 2.12377,-2.79773 0.24276,-6.99359 -3.87362,-8.64063 -2.16862,-0.86771 -3.0506,-0.94757 -3.77991,-0.34227 -1.30888,1.08627 -1.19579,2.58207 0.50463,6.67379 1.36041,3.27337 1.61321,3.50347 3.84912,3.50347 1.47875,0 2.73952,-0.45634 3.29978,-1.19436 z m -344.67552,24.14147 1.67607,-5.37627 -2.57245,-2.27334 c -1.41481,-1.25034 -2.84961,-2.28613 -3.18833,-2.30175 -0.64243,-0.0296 -0.0803,13.67996 0.76583,18.67721 l 0.47289,2.79286 0.58497,-3.07122 c 0.32172,-1.68916 1.33918,-5.49053 2.26102,-8.44749 z m 28.243,-22.21975 c 0.38861,-0.72607 0.70652,-1.90525 0.70652,-2.62042 0,-0.72468 0.75531,-1.64445 1.70622,-2.07771 3.05989,-1.39417 1.48702,-5.58411 -2.0962,-5.58411 -1.48346,0 -1.72479,0.35174 -1.64364,2.39587 0.007,0.19162 -0.45959,1.26389 -1.03821,2.38283 -0.93774,1.8133 -0.88007,4.50192 0.13527,6.31178 0.50907,0.90748 1.50503,0.54653 2.23004,-0.80824 z m 63.49573,-47.81598 c 0,-1.83048 -3.18191,-7.27283 -5.24986,-8.97926 -1.0208,-0.84237 -1.07595,-0.48747 -0.65267,4.19853 0.25437,2.81528 0.65936,6.63962 0.9,8.49853 l 0.43755,3.37986 2.28252,-2.64045 c 1.35536,-1.56797 2.28246,-3.37836 2.28246,-4.45721 z m 69.14007,-23.03738 c 6.04394,-4.20167 16.61477,-8.85115 22.13784,-9.73716 2.98767,-0.47926 5.8785,-1.42791 7.30839,-2.39826 2.51996,-1.71006 8.28674,-3.05001 13.12642,-3.05001 2.16357,0 2.94584,-0.27187 2.94584,-1.02374 0,-0.63039 0.64011,-1.02374 1.66596,-1.02374 2.21905,0 2.67707,-0.93402 1.78438,-3.63893 -0.97344,-2.94962 -5.06081,-6.87018 -8.953,-8.58759 -11.32396,-4.99671 -34.39674,-6.76872 -58.3713,-4.48296 -10.02062,0.95538 -40.15282,4.54893 -46.23757,5.51428 -2.54699,0.40407 -2.30709,0.55337 8.71364,5.42305 12.67284,5.59971 31.17921,14.75533 39.97366,19.77612 7.4081,4.22928 10.3723,5.72708 11.40143,5.76109 0.45256,0.0149 2.47949,-1.12451 4.50431,-2.53215 z m 191.76501,-6.74973 c 1.9582,-0.99092 7.39937,-4.32512 12.09149,-7.40933 4.69213,-3.08421 12.8748,-8.26327 18.18362,-11.509 15.1522,-9.26377 15.66482,-8.24911 -4.69868,-9.30052 -27.26949,-1.40798 -52.05485,-0.4489 -70.16653,2.71511 -5.33306,0.93167 -6.30056,1.4387 -5.70529,2.98998 0.92287,2.40505 7.54358,4.81964 16.21108,5.91229 8.71139,1.09816 21.82123,8.97209 26.94756,16.18504 1.90805,2.68466 2.57716,2.72371 7.13675,0.41643 z M 699.99438,1061.9582 c -0.74603,-2.9724 -0.03,-3.442 7.17046,-4.7022 3.80168,-0.6654 10.66748,-2.6032 15.25723,-4.3062 8.56923,-3.1796 14.72421,-4.1486 15.33053,-2.4133 0.43325,1.24 -4.83961,3.3888 -12.26737,4.9992 -3.47627,0.7538 -10.43195,2.8907 -15.45714,4.7489 -5.02518,1.858 -9.24223,3.3784 -9.37129,3.3784 -0.12899,0 -0.4271,-0.7672 -0.66242,-1.7048 z m 305.64952,-227.946 c -4.167,-1.81123 -5.6339,-3.93757 -5.6339,-8.16651 0,-3.51798 0.113,-3.78472 1.6044,-3.78472 2.8698,0 5.903,1.41636 5.903,2.75645 0,1.73524 1.2051,2.32017 2.5272,1.22663 2.4968,-2.0652 4.2841,-7.52003 4.291,-13.09644 l 0.01,-5.35965 -3.1489,-3.50238 c -1.7319,-1.9263 -4.0325,-5.04264 -5.1123,-6.92519 -1.853,-3.23044 -1.9637,-3.8695 -1.9697,-11.3702 -0.01,-6.06867 0.3206,-9.00626 1.377,-12.42664 1.4835,-4.80275 1.9411,-5.43486 3.3184,-4.58361 0.7145,0.4416 0.7368,2.54929 0.1169,11.04546 -0.4213,5.77484 -0.8912,11.28773 -1.044,12.25085 -0.2189,1.37931 0.5276,2.6111 3.5158,5.80118 2.0864,2.22752 4.678,5.41543 5.7589,7.08425 1.9246,2.97127 1.9654,3.23007 1.9654,12.47739 0,10.20911 -0.5992,12.79053 -3.6852,15.87647 -1.9925,1.99252 -6.1318,2.28705 -9.7907,0.69666 z m 0.7254,-85.14844 c 3.2714,-7.69001 5.2958,-13.22761 5.6535,-15.46428 0.2433,-1.52163 0.8647,-3.11712 1.3809,-3.54554 0.5163,-0.42842 0.9386,-1.99639 0.9386,-3.48439 v -2.70544 l -2.787,2.04955 c -4.6537,3.42242 -6.9916,7.20325 -7.3278,11.85042 -0.2608,3.60515 -0.5278,4.20248 -2.5772,5.76563 -2.09468,1.5977 -2.37764,1.65242 -3.37701,0.65303 -0.59991,-0.59993 -1.37597,-1.09078 -1.72452,-1.09078 -1.17457,0 -0.64557,-4.57832 0.73122,-6.32866 0.90485,-1.15031 1.36499,-2.76871 1.36499,-4.80089 0,-2.38614 0.54353,-3.87496 2.45222,-6.71727 7.5965,-11.31207 12.4337,-14.42125 16.3473,-10.5076 1.5107,1.51065 1.6752,2.23404 1.6752,7.36402 0,3.12884 -0.4704,7.51928 -1.0453,9.75652 -1.4682,5.71339 -5.1545,13.23378 -7.768,15.84728 -2.1757,2.17565 -4.6476,3.02853 -3.9371,1.3584 z M 687.57631,658.77489 c -0.38615,-0.46921 -0.92327,-2.38872 -1.19354,-4.26557 -0.27764,-1.92853 -1.47507,-5.04479 -2.75358,-7.16616 -1.24425,-2.06454 -3.39048,-6.5178 -4.76939,-9.89613 -2.74573,-6.72687 -5.65922,-11.1401 -9.85961,-14.93494 -3.45334,-3.11987 -4.8865,-3.13792 -6.34478,-0.0799 -1.59307,3.34067 -3.26804,3.11142 -5.12012,-0.70075 -1.80546,-3.71617 -2.06618,-9.92413 -0.47242,-11.24689 1.34485,-1.11611 8.53701,-0.34764 12.28,1.31211 6.07963,2.69587 16.72104,17.96759 16.72104,23.99677 0,1.1279 0.368,1.36065 1.87685,1.18703 l 1.87685,-0.21595 0.81763,-11.55375 c 0.80718,-11.40582 0.84335,-11.57945 2.82353,-13.55966 l 2.00591,-2.00589 3.40925,1.13237 c 4.59631,1.52665 5.75559,2.92822 5.48928,6.63679 l -0.21328,2.97035 -4.16797,0.20065 -4.16798,0.20066 -0.38868,6.62426 c -0.21382,3.64334 -1.16296,9.56032 -2.10917,13.14884 -1.4722,5.58313 -1.6618,7.42963 -1.31407,12.79672 l 0.40636,6.27212 h -2.06495 c -1.13573,0 -2.38094,-0.3839 -2.76716,-0.85311 z m 65.50826,-11.56823 c -1.05943,-1.05945 -1.02817,-4.11682 0.0859,-8.39465 0.72911,-2.79959 0.72945,-3.71888 0,-5.11868 -0.4877,-0.93843 -0.89126,-2.50043 -0.89679,-3.47111 -0.008,-1.27859 -1.27947,-2.98792 -4.61692,-6.20358 -2.53375,-2.44129 -5.35912,-4.83871 -6.27871,-5.32761 -1.49104,-0.79276 -1.77776,-0.72943 -2.65087,0.58555 l -0.97903,1.47447 -0.93215,-1.79677 c -0.51282,-0.98823 -0.93228,-3.44375 -0.93228,-5.45673 0,-3.11242 0.24563,-3.82087 1.64159,-4.73558 1.49493,-0.97948 1.8729,-0.979 4.22886,0.005 1.42299,0.59456 3.59086,1.84652 4.8175,2.78214 2.95969,2.25743 11.1401,12.78643 11.77305,15.15293 0.69341,2.59279 1.48441,1.86986 3.17897,-2.90522 1.6388,-4.61824 8.30005,-19.51536 9.0828,-20.31265 0.93645,-0.95389 4.88459,0.33537 6.9578,2.27204 2.19823,2.05342 2.22431,3.06729 0.20713,8.04443 l -0.9275,2.28867 -2.43308,-1.43556 c -1.33823,-0.78963 -2.55539,-1.43562 -2.70485,-1.43562 -0.14947,0 -1.5051,2.07602 -3.01252,4.61338 -2.98672,5.02743 -5.50989,11.63592 -5.51044,14.4326 -4.1e-4,2.01172 -1.97021,7.48295 -4.47066,12.41738 -1.75352,3.46038 -3.78373,4.37083 -5.62987,2.52471 z M 421.02873,585.06581 c -3.74026,-4.98898 -6.00674,-9.91913 -5.78677,-12.58771 0.21088,-2.55892 0.31961,-2.65124 7.27822,-6.1808 8.65051,-4.38775 10.49931,-4.54016 12.5805,-1.0371 2.14002,3.60207 6.54052,13.41123 6.23934,13.90803 -0.98238,1.62013 -8.46133,5.74138 -12.34177,6.80091 -6.10482,1.66685 -6.03684,1.67456 -7.96952,-0.90333 z m 581.93407,-17.34276 c -1.8117,-1.37421 -5.21359,-4.17581 -7.55966,-6.22577 -5.58073,-4.87636 -5.61615,-6.03851 -0.34124,-11.18777 4.74863,-4.63551 7.3454,-6.02256 11.275,-6.02256 2.4511,0 3.5064,0.44863 5.9252,2.51905 5.0049,4.28396 6.8576,7.39214 6.8576,11.50414 0,3.56951 -0.015,3.5944 -4.6981,7.74625 -5.5827,4.94936 -6.8818,5.13831 -11.4588,1.66666 z M 457.44893,548.74681 c -0.65969,-0.79484 -0.71593,-1.49596 -0.20884,-2.60322 0.53739,-1.1735 2.06133,-1.8823 6.75462,-3.14163 10.92866,-2.93243 54.10321,-17.4905 74.65105,-25.17164 18.6832,-6.98412 30.55473,-11.0804 32.11231,-11.0804 0.35599,0 0.64728,1.50029 0.64728,3.33396 0,3.96194 -1.06721,4.91615 -7.26751,6.49795 -2.19647,0.56037 -13.05368,4.0811 -24.1271,7.82386 -16.98612,5.74123 -74.26674,23.67139 -79.90214,25.01123 -1.17928,0.28038 -2.05368,0.0601 -2.65967,-0.67011 z m 478.59575,-4.44124 c -2.68138,-1.63491 -3.22143,-3.54862 -2.71298,-9.61339 0.44629,-5.32375 1.423,-7.64701 3.082,-7.33143 0.89372,0.17 1.1947,1.1211 1.35754,4.29036 0.21758,4.23244 0.78971,5.1004 3.37383,5.11798 1.25906,0.009 1.53561,-0.36436 1.53561,-2.07091 0,-3.22515 1.78014,-6.10853 3.77124,-6.10853 0.9288,0 1.69695,0.23034 1.70705,0.51186 0.0102,0.28153 0.91426,1.5868 2.00925,2.90059 l 1.9909,2.38872 -0.39953,-3.93453 c -0.32555,-3.20544 -0.1724,-4.18559 0.82643,-5.28931 0.67437,-0.74512 1.58229,-1.35477 2.01765,-1.35477 1.50612,0 3.28653,5.06131 3.61181,10.26744 l 0.32159,5.14876 -2.57886,2.26431 c -2.30198,2.02113 -2.9066,2.22739 -5.6296,1.92047 -2.12719,-0.23977 -3.90133,0.0425 -5.8611,0.93245 -3.60506,1.6371 -5.68836,1.62718 -8.42283,-0.0401 z m -407.46567,-1.84389 c -1.35693,-0.94655 -1.53561,-1.65707 -1.53561,-6.10663 0,-4.12545 0.24666,-5.28211 1.36499,-6.40042 1.87111,-1.8711 2.38803,-1.73809 4.11692,1.05927 1.42532,2.30622 1.56031,2.36811 2.77228,1.27128 0.70072,-0.63413 1.46777,-2.18573 1.70452,-3.44799 0.23683,-1.26226 0.67622,-2.29502 0.97644,-2.29502 0.70133,0 4.07967,3.99957 4.07967,4.82981 0,0.34657 0.92136,0.63012 2.04747,0.63012 1.80021,0 2.04747,-0.23697 2.04747,-1.96216 0,-1.07919 0.19526,-2.93827 0.43386,-4.13128 0.38855,-1.94277 0.6556,-2.14753 2.55935,-1.96217 2.92502,0.28481 4.19793,3.84014 2.78968,7.79144 -0.52006,1.45909 -0.95904,3.96267 -0.97548,5.56351 -0.0259,2.53679 -0.31484,3.08432 -2.24806,4.26302 -2.8232,1.72134 -4.95837,1.719 -6.81154,-0.008 -1.97199,-1.8372 -4.04991,-1.71872 -5.98518,0.34124 -1.85815,1.9779 -4.96683,2.21665 -7.33678,0.56345 z m 328.91344,-14.72515 c 0.32036,-2.25586 3.95483,-3.72677 12.16896,-4.9249 3.93736,-0.57432 20.43584,-4.38462 36.6633,-8.46733 32.37083,-8.14431 32.62752,-8.17301 30.98578,-3.46358 -1.52789,4.38296 -2.52044,5.30951 -5.6988,5.31967 -6.5814,0.021 -41.87718,6.2826 -60.48989,10.73109 -5.38642,1.28736 -10.70562,2.34066 -11.82047,2.34066 -1.71169,0 -1.99308,-0.23887 -1.80888,-1.53561 z m -250.42693,-37.76469 -2.21809,-1.74812 v -8.17946 c 0,-9.0421 0.9286,-14.01289 2.91874,-15.62443 0.82063,-0.6645 1.44668,-2.26119 1.67265,-4.26596 0.19861,-1.76218 0.82063,-3.58532 1.38218,-4.05141 0.89618,-0.74375 0.96163,-0.30669 0.5348,3.57216 -0.26747,2.43077 -0.91153,5.71102 -1.43132,7.28944 -0.51978,1.57842 -1.15491,5.38647 -1.41139,8.46234 -0.52061,6.24233 0.11718,7.43632 3.97217,7.43632 1.88804,0 1.91705,-0.0619 1.91705,-4.09495 0,-2.25222 0.12844,-4.09495 0.28542,-4.09495 0.15697,0 0.77121,-0.18641 1.36498,-0.41426 1.66937,-0.6406 1.55226,12.41932 -0.12995,14.49608 -2.70642,3.34115 -5.64918,3.74555 -8.85724,1.2172 z m 71.49098,-7.02834 c -2.34162,-0.41371 -2.39281,-0.49331 -2.59613,-4.03781 -0.23204,-4.04451 0.39967,-6.00277 6.28077,-19.47122 4.08328,-9.35117 4.56416,-12.16767 2.79903,-16.39223 -1.39303,-3.33397 -1.30014,-3.85897 0.68249,-3.85897 1.67688,0 1.70623,0.0933 1.70623,5.4247 0,5.94773 -1.20576,10.4696 -6.53403,24.5046 -1.65976,4.37193 -3.01846,8.17931 -3.01928,8.46084 -6.8e-4,0.28153 1.38048,0.51187 3.06964,0.51187 1.68917,0 3.07121,-0.30712 3.07121,-0.68249 0,-1.08781 2.73195,-0.78907 3.16765,0.34638 0.2171,0.56588 0.19356,2.10149 -0.0525,3.41246 -0.43031,2.29373 -0.55534,2.3802 -3.31684,2.29374 -1.57833,-0.0494 -3.9446,-0.27976 -5.25839,-0.51187 z m 86.74528,-6.1208 -4.16381,-6.19247 v -7.79126 c 0,-6.09296 0.22317,-7.97646 1.02373,-8.64089 1.53179,-1.27128 1.4976,-15.01481 -0.0375,-15.01481 -0.8381,0 -1.01739,-0.67014 -0.85312,-3.18849 0.1163,-1.78203 0.58435,-3.31237 1.06114,-3.46933 0.46921,-0.15446 0.85312,0.19462 0.85312,0.77575 0,0.58114 0.61424,1.38534 1.36498,1.78712 1.25271,0.67042 1.36498,1.42901 1.36498,9.22115 0,7.28409 -0.19362,8.80818 -1.36246,10.72523 -2.13831,3.50723 -1.88511,9.16411 0.56128,12.54018 2.5358,3.49936 6.42853,6.41545 8.56404,6.41545 2.24049,0 2.60112,-0.71541 1.64181,-3.25694 -0.65513,-1.73559 -0.57562,-2.56653 0.46641,-4.87746 0.69089,-1.53201 1.31721,-2.78546 1.39187,-2.78546 0.0747,0 1.10291,0.33716 2.28505,0.74926 2.12194,0.7397 2.1493,0.80744 2.1493,5.31532 0,7.68509 -3.35349,12.52477 -9.31539,13.44366 l -2.83172,0.43644 -4.16382,-6.19245 z M 586.42016,461.10102 c 0,-1.14075 5.90123,-7.86443 19.53632,-22.259 25.80343,-27.24074 31.28397,-33.47841 33.92405,-38.6108 1.37563,-2.67423 2.3301,-5.13902 2.12105,-5.47731 -0.20912,-0.33829 -1.29325,-0.61508 -2.40926,-0.61508 -7.26178,0 -12.02243,-6.97343 -10.13418,-14.8446 0.47501,-1.97994 1.27435,-3.94074 1.77632,-4.35734 0.5019,-0.41659 0.91263,-1.5029 0.91263,-2.41399 0,-0.91111 0.49316,-2.61021 1.09587,-3.77579 0.68263,-1.31998 0.95645,-2.97887 0.72604,-4.39861 -0.22686,-1.39788 0.16536,-3.86445 1.01425,-6.37803 1.18958,-3.52271 1.61982,-4.09863 3.06159,-4.09863 2.2673,0 4.94355,1.48008 7.41083,4.0985 1.12611,1.1951 3.75261,3.03895 5.8366,4.09746 4.72297,2.39888 9.86944,6.35817 15.8325,12.18039 l 4.60682,4.49798 v 3.97652 c 0,5.56372 -1.3138,7.74332 -5.94573,9.86388 -3.5108,1.60731 -4.28325,1.70635 -10.11289,1.29656 l -6.31181,-0.44367 -3.19809,5.13112 c -9.56355,15.34415 -29.30843,38.28597 -45.46328,52.82436 -6.94913,6.25378 -14.27963,11.23643 -14.27963,9.70608 z m 77.88674,-76.0848 c 0.66168,-1.45216 0.39885,-1.9305 -2.6035,-4.73884 -4.43954,-4.15266 -6.74315,-5.9308 -7.68349,-5.9308 -0.52599,0 -0.71088,1.5912 -0.57486,4.94664 l 0.20052,4.94663 4.09494,1.14117 c 5.45714,1.52078 5.71375,1.50653 6.56639,-0.3648 z m -17.47772,-5.03908 c -0.53166,-4.98105 -0.98231,-5.59929 -4.10348,-5.62943 -1.12611,-0.0109 -2.73754,-0.20472 -3.58103,-0.43076 -1.30219,-0.34899 -1.73755,0.0386 -2.88557,2.56866 -0.74365,1.63881 -1.35878,3.95834 -1.36703,5.15451 -0.0171,2.43579 0.52831,2.61918 8.42501,2.83461 l 4.00384,0.10922 z m 72.67681,66.66607 c 0,-1.77963 0.23007,-2.06212 1.52864,-1.87686 1.74636,0.24915 2.47786,2.49314 1.09786,3.3677 -1.76199,1.11661 -2.6265,0.6259 -2.6265,-1.49084 z m -1.12898,-72.39648 c -0.40205,-0.50813 -0.92389,-2.86049 -1.15955,-5.22745 -0.23566,-2.36696 -1.22623,-6.29778 -2.20138,-8.73517 -1.95929,-4.89748 -1.84245,-6.04403 0.73559,-7.21866 2.54126,-1.15788 3.09722,-0.19367 3.69972,6.41669 0.28985,3.18036 0.74596,6.13676 1.01357,6.56976 1.25967,2.03819 7.2497,-0.60704 7.21598,-3.18659 -0.008,-0.62965 -0.62107,-2.48031 -1.36171,-4.11257 -1.34232,-2.95815 -1.34232,-2.97337 0.015,-4.69886 0.7489,-0.95211 1.36171,-2.30393 1.36171,-3.00405 0,-1.78436 1.021,-1.58425 2.68041,0.52533 0.97979,1.24558 1.41453,2.79388 1.41453,5.03768 0,2.85326 0.2644,3.44075 2.2181,4.92844 1.21995,0.92897 2.95396,1.92171 3.85328,2.2061 1.59778,0.50519 1.6244,0.44872 1.15989,-2.46115 -0.26146,-1.638 -0.93808,-3.68525 -1.50366,-4.54943 -0.58503,-0.89391 -0.93795,-2.65914 -0.81865,-4.09495 0.18031,-2.16969 0.44539,-2.52372 1.88975,-2.52372 1.94531,0 2.6839,1.24745 4.75697,8.03361 1.6016,5.24303 1.81044,9.29863 0.55855,10.84586 -2.58057,3.18917 -7.76375,4.3299 -10.4482,2.29947 -1.90954,-1.44431 -2.76081,-1.29693 -6.20794,1.07477 -3.50425,2.41096 -7.73945,3.30599 -8.87191,1.87489 z m 9.0596,-45.15633 0.46791,-14.65229 -2.05552,-6.38843 c -1.13062,-3.51364 -2.56351,-8.11712 -3.1843,-10.22996 -0.62087,-2.11283 -2.05198,-5.00323 -3.18035,-6.42309 -1.12836,-1.41986 -3.00105,-4.24106 -4.16149,-6.26934 l -2.10992,-3.68778 1.82478,-5.00324 c 1.0036,-2.75178 2.24123,-5.5728 2.7503,-6.26893 0.88861,-1.21524 0.99958,-1.19768 2.78388,0.44054 2.59102,2.37894 7.11955,9.47446 7.14569,11.1963 0.0123,0.78639 0.47263,2.02596 1.02374,2.7546 0.58817,0.77762 1.00203,2.81779 1.00203,4.93953 0,1.9881 0.77012,6.57875 1.71142,10.20146 0.94122,3.6227 1.88954,8.15658 2.10739,10.07528 0.42567,3.74951 -2.37316,23.53435 -4.19889,29.68234 -2.03,6.8357 -2.41063,4.78739 -1.92667,-10.36699 z"
     id="path817"
     inkscape:connector-curvature="0" />
</svg>
